<?xml version="1.0" encoding="UTF-8"?>
<svg version="1.1" xmlns="http://www.w3.org/2000/svg" width="394" height="394">
<path d="M0 0 C130.02 0 260.04 0 394 0 C394 130.02 394 260.04 394 394 C263.98 394 133.96 394 0 394 C0 263.98 0 133.96 0 0 Z " fill="#E9E8E5" transform="translate(0,0)"/>
<path d="M0 0 C130.02 0 260.04 0 394 0 C394 130.02 394 260.04 394 394 C263.98 394 133.96 394 0 394 C0 263.98 0 133.96 0 0 Z M167 25 C164.29477546 28.83967354 163.87024432 31.62706062 163.93359375 36.203125 C163.94318115 37.10192383 163.95276855 38.00072266 163.96264648 38.92675781 C163.98113647 39.9530127 163.98113647 39.9530127 164 41 C163.17274414 40.97381592 162.34548828 40.94763184 161.49316406 40.9206543 C157.74563582 40.81673169 153.9984105 40.75168511 150.25 40.6875 C148.29707031 40.6246582 148.29707031 40.6246582 146.3046875 40.56054688 C145.05429688 40.54443359 143.80390625 40.52832031 142.515625 40.51171875 C141.36352539 40.48553467 140.21142578 40.45935059 139.02441406 40.43237305 C135.86450543 40.76155475 135.86450543 40.76155475 133.59277344 43.09301758 C131.65645342 46.62700937 131.6885149 49.02856501 132 53 C131.05793701 52.97905273 130.11587402 52.95810547 129.14526367 52.93652344 C125.59844886 52.86772511 122.05235865 52.81790186 118.50512695 52.78027344 C116.97962141 52.76034689 115.45419032 52.73319515 113.92895508 52.69824219 C102.59087831 52.44520995 92.35946799 52.71483346 83.5625 60.75 C78.4815708 66.32028099 74.88285676 72.84498044 74.86577892 80.49263763 C74.86132108 81.41841032 74.85686324 82.344183 74.85227031 83.2980094 C74.85245467 84.3167598 74.85263903 85.33551021 74.85282898 86.38513184 C74.84915229 87.46615881 74.8454756 88.54718579 74.8416875 89.66097116 C74.83062931 93.30198031 74.82680316 96.94296093 74.82299805 100.58398438 C74.81673492 103.18723644 74.81008825 105.79048761 74.80308533 108.39373779 C74.78332071 116.22056222 74.7732534 124.04738795 74.76435754 131.8742311 C74.75997347 135.56172886 74.75460686 139.24922518 74.74936867 142.9367218 C74.7323542 155.19872489 74.71786165 167.46072709 74.71061993 179.72274017 C74.70871008 182.90500388 74.70678974 186.08726757 74.70483398 189.26953125 C74.70435024 190.06045286 74.7038665 190.85137447 74.7033681 191.6662634 C74.69507392 204.46887519 74.66974834 217.27139336 74.63725331 230.0739643 C74.60414898 243.22406857 74.58616801 256.37412534 74.58297569 269.52427149 C74.5808134 276.90508991 74.57210637 284.28577193 74.54651451 291.66654968 C74.52248161 298.61374227 74.51900303 305.56068608 74.52927589 312.50791168 C74.52977126 315.05436773 74.52345085 317.60083587 74.50971985 320.14725494 C74.49198725 323.63146206 74.49911497 327.11479067 74.51225281 330.59899902 C74.50128356 331.59990366 74.49031432 332.60080829 74.47901267 333.63204336 C74.56250615 342.8429531 76.82541432 351.66220702 83.28515625 358.5 C89.80079421 364.19932796 95.47037876 366.14764412 104.06260681 366.16062927 C104.89383153 366.16571709 105.72505625 366.17080491 106.5814696 366.17604691 C109.37714667 366.19178917 112.17279786 366.20030128 114.96850586 366.20874023 C116.96915858 366.21827754 118.96980963 366.22816865 120.97045898 366.23838806 C127.55190061 366.26979688 134.13335495 366.29004717 140.71484375 366.30859375 C141.83495574 366.31189107 142.95506773 366.31518839 144.10912251 366.31858563 C154.67630038 366.34937512 165.2434811 366.37607985 175.81069088 366.39300442 C189.31938858 366.41489416 202.82768794 366.45682308 216.3362264 366.52644199 C225.83787975 366.57374328 235.33942588 366.59794646 244.84119326 366.6052013 C250.5135782 366.61014958 256.18551439 366.62515192 261.85777092 366.6649456 C267.2004775 366.70193166 272.54248128 366.7101822 277.88529205 366.69693947 C279.8395399 366.69699322 281.79381982 366.70721022 283.7479496 366.7286911 C295.7432684 366.85343174 305.83226653 366.45684923 315.24752712 357.97537899 C322.42527305 350.6576111 323.44567116 342.67297193 323.39440918 332.85501099 C323.40050028 331.75267211 323.40659139 330.65033323 323.41286707 329.51459014 C323.42947795 325.83139852 323.42472383 322.14855333 323.41992188 318.46533203 C323.42726329 315.82030048 323.43575732 313.17529463 323.44558716 310.53027344 C323.46660341 304.09770093 323.47118422 297.66521863 323.46939927 291.23261584 C323.46808978 286.00214126 323.47190532 280.77169474 323.47932434 275.54122543 C323.48142362 274.03251612 323.48352122 272.52380681 323.48561716 271.0150975 C323.48666069 270.26408692 323.48770422 269.51307634 323.48877937 268.73930787 C323.50766622 254.54757271 323.50663625 240.35588928 323.49981004 226.16414677 C323.49423512 213.19301119 323.51506051 200.22207315 323.54817051 187.25098373 C323.58193706 173.91877887 323.5970722 160.58666857 323.59245348 147.25442016 C323.59021186 139.77476625 323.59540689 132.29529493 323.62034607 124.81567764 C323.64139755 118.44804963 323.64491327 112.08070434 323.62604648 105.71306457 C323.61691213 102.46707461 323.61840445 99.22171844 323.63640213 95.97574997 C323.65460131 92.44967352 323.64183811 88.92499109 323.62145996 85.3989563 C323.63397781 84.38298563 323.64649566 83.36701496 323.65939283 82.32025731 C323.56137266 74.38675695 321.49670922 67.72822617 315.9809432 61.84726155 C309.48742131 55.8062236 303.86902872 53.53738854 295.1015625 53.70703125 C293.84912247 53.71339851 293.84912247 53.71339851 292.57138062 53.71989441 C289.92224965 53.73659667 287.2738984 53.77423225 284.625 53.8125 C282.82162562 53.8275578 281.01823924 53.84124429 279.21484375 53.85351562 C274.8095985 53.88647238 270.40493114 53.93819531 266 54 C266.05800781 53.39671875 266.11601562 52.7934375 266.17578125 52.171875 C266.53609905 46.8852334 266.53609905 46.8852334 263.8996582 42.46191406 C260.51553689 40.75574934 258.3829 40.53776493 254.60546875 40.609375 C252.80239258 40.62871094 252.80239258 40.62871094 250.96289062 40.6484375 C249.71701172 40.68195312 248.47113281 40.71546875 247.1875 40.75 C245.28967773 40.77707031 245.28967773 40.77707031 243.35351562 40.8046875 C240.23490665 40.85176084 237.11784027 40.91750906 234 41 C234.02610352 40.09834106 234.02610352 40.09834106 234.05273438 39.1784668 C234.06626953 38.38093994 234.07980469 37.58341309 234.09375 36.76171875 C234.11985352 35.58162231 234.11985352 35.58162231 234.14648438 34.37768555 C233.84061679 29.4129449 231.71570214 25.64634397 228.1640625 22.23828125 C221.94301172 17.31626215 216.18054403 15.68871792 208.2578125 15.69921875 C207.53061005 15.69493362 206.80340759 15.6906485 206.0541687 15.68623352 C204.52293941 15.6805176 202.99168298 15.67996966 201.46044922 15.68432617 C199.13851765 15.68748163 196.81786779 15.66401016 194.49609375 15.63867188 C193.00000159 15.63639787 191.50390604 15.63569585 190.0078125 15.63671875 C189.32421661 15.627509 188.64062073 15.61829926 187.93630981 15.60881042 C179.4644292 15.68867535 172.72319502 18.83772388 167 25 Z " fill="#E9E8E4" transform="translate(0,0)"/>
<path d="M0 0 C0.72766068 -0.00807175 1.45532135 -0.01614349 2.20503235 -0.02445984 C3.74400477 -0.03826362 5.28300734 -0.04900228 6.82202148 -0.05688477 C8.3823353 -0.06837551 9.94261071 -0.08878135 11.50268555 -0.1184082 C28.24140557 -0.43590644 28.24140557 -0.43590644 35.48828125 4.23828125 C36.06586182 4.60824219 36.64344238 4.97820313 37.23852539 5.359375 C41.30245295 8.33938499 43.05918711 11.47463413 44.48828125 16.23828125 C44.56246043 17.81483613 44.58460613 19.39457159 44.55859375 20.97265625 C44.54844238 21.77413086 44.53829102 22.57560547 44.52783203 23.40136719 C44.51478027 24.00754883 44.50172852 24.61373047 44.48828125 25.23828125 C45.28000732 25.21733398 46.0717334 25.19638672 46.88745117 25.17480469 C50.48343143 25.09152658 54.07920861 25.03958234 57.67578125 24.98828125 C58.92166016 24.95476563 60.16753906 24.92125 61.45117188 24.88671875 C63.25424805 24.86738281 63.25424805 24.86738281 65.09375 24.84765625 C66.75120239 24.81623535 66.75120239 24.81623535 68.44213867 24.78417969 C72.38483983 25.37193509 73.93599006 26.15405259 76.48828125 29.23828125 C76.90059602 32.28379229 76.78181968 35.18548156 76.48828125 38.23828125 C77.59228271 38.21209717 78.69628418 38.18591309 79.83374023 38.15893555 C83.96536657 38.06781283 88.09690579 38.01080883 92.22924805 37.96362305 C94.01097597 37.93861917 95.79260278 37.90460418 97.57397461 37.86108398 C108.93049993 37.59076624 116.87600606 37.52258574 125.79296875 45.23046875 C126.31117188 45.85179687 126.829375 46.473125 127.36328125 47.11328125 C127.89695312 47.72945312 128.430625 48.345625 128.98046875 48.98046875 C133.48594103 55.72700496 133.9225731 61.32775193 133.8759613 69.26974487 C133.88403961 70.9230299 133.88403961 70.9230299 133.89228112 72.60971463 C133.90657423 76.29835473 133.89945337 79.98663665 133.89233398 83.67529297 C133.89803686 86.32179905 133.9049003 88.96827952 133.91313171 91.61477661 C133.93031012 98.05451025 133.93116168 104.49414628 133.92591881 110.93389688 C133.92187384 116.16964701 133.92332455 121.40536834 133.92866707 126.6411171 C133.92941549 127.3869177 133.93016391 128.13271829 133.93093501 128.90111891 C133.93246653 130.4163266 133.93400488 131.93153428 133.93554998 133.44674195 C133.94927173 147.64989182 133.94383978 161.85298658 133.93236477 176.05613519 C133.92243425 189.04091657 133.93537047 202.02555541 133.95929896 215.01031481 C133.98370057 228.35265112 133.99329513 241.69492107 133.98664623 255.03727925 C133.98315617 262.52415113 133.98537189 270.01091342 134.00289726 277.4977684 C134.01763261 283.87164401 134.01823747 290.24533287 134.00082635 296.61920486 C133.99232445 299.8690317 133.99232191 303.11845719 134.00547791 306.3682785 C134.01867048 309.89678317 134.00715407 313.42438441 133.98948669 316.95285034 C134.0038942 318.48219878 134.0038942 318.48219878 134.01859277 320.04244316 C133.92467302 329.17307374 131.09557089 336.72446033 124.64281178 343.30715275 C115.13202526 351.83177131 103.49993063 350.94737005 91.5480957 350.86938477 C89.53976816 350.8745297 87.53144514 350.88181529 85.52313232 350.8910675 C80.09556211 350.90951282 74.66848589 350.89668768 69.24093652 350.87697721 C63.54987573 350.86053942 57.85884496 350.86941042 52.16777039 350.87449646 C42.61591742 350.87901057 33.06426073 350.86318707 23.51245117 350.83520508 C12.4781482 350.80312887 1.44419859 350.80318189 -9.59012955 350.82041985 C-20.22136904 350.83629433 -30.8524793 350.82954718 -41.48371315 350.81248283 C-46.00148788 350.80562056 -50.51915876 350.80663628 -55.03693199 350.81402779 C-60.35670743 350.82170052 -65.67608153 350.80953193 -70.99578857 350.78217888 C-72.94523236 350.77530543 -74.89471369 350.77518589 -76.84415627 350.78239441 C-79.5102522 350.79111553 -82.17511694 350.77508879 -84.84111023 350.75294495 C-85.99136776 350.7653061 -85.99136776 350.7653061 -87.16486281 350.77791697 C-95.37166714 350.65255593 -101.69567474 346.92507984 -107.51171875 341.23828125 C-113.76209031 333.0314222 -114.81006448 325.42642438 -114.77914429 315.3586731 C-114.7836754 314.27281729 -114.78820651 313.18696148 -114.79287493 312.06820095 C-114.80552067 308.43490954 -114.80389843 304.80176799 -114.80224609 301.16845703 C-114.80823117 298.56136889 -114.81503666 295.95428252 -114.82260132 293.34719849 C-114.83918662 287.00373983 -114.84470972 280.66031836 -114.84582607 274.31683983 C-114.8467776 269.159279 -114.8508931 264.00173039 -114.85722733 258.84417343 C-114.874832 244.21133267 -114.88406726 229.57852121 -114.88256638 214.94566979 C-114.88248647 214.1574513 -114.88240655 213.36923281 -114.88232422 212.55712891 C-114.88224246 211.76794468 -114.8821607 210.97876046 -114.88207646 210.16566156 C-114.88126349 197.37488022 -114.90040582 184.58421661 -114.92860095 171.79346932 C-114.95734428 158.65002163 -114.97114049 145.50663134 -114.9694134 132.36315143 C-114.96875006 124.98805381 -114.97421789 117.61307967 -114.9957695 110.23801041 C-115.01590807 103.30224989 -115.01529283 96.36675409 -115.00073624 89.43098068 C-114.99864411 86.8869107 -115.00337294 84.34282449 -115.01545715 81.79878235 C-115.03089739 78.32283377 -115.02160834 74.84778593 -115.00619507 71.37185669 C-115.01648219 70.36785485 -115.02676932 69.36385302 -115.03736818 68.32942688 C-114.94386857 58.77181599 -111.7897694 51.90553546 -105.30078125 44.9609375 C-98.67951058 38.58543451 -91.60355166 36.90757098 -82.609375 37.04296875 C-81.88681015 37.04579865 -81.1642453 37.04862854 -80.41978455 37.05154419 C-78.13775259 37.06263739 -75.85612978 37.08772037 -73.57421875 37.11328125 C-72.01628176 37.12332514 -70.45833854 37.13244851 -68.90039062 37.140625 C-65.10401176 37.16254092 -61.30793435 37.19699387 -57.51171875 37.23828125 C-57.59421875 36.18640625 -57.67671875 35.13453125 -57.76171875 34.05078125 C-57.51171875 30.23828125 -57.51171875 30.23828125 -55.91894531 27.33129883 C-52.77782794 24.60018329 -51.11839777 24.65631127 -46.99609375 24.75 C-45.74570313 24.76611328 -44.4953125 24.78222656 -43.20703125 24.79882812 C-41.25410156 24.86166992 -41.25410156 24.86166992 -39.26171875 24.92578125 C-37.28558594 24.95961914 -37.28558594 24.95961914 -35.26953125 24.99414062 C-32.01578471 25.05308531 -28.76432204 25.13533072 -25.51171875 25.23828125 C-25.53419678 24.56571289 -25.5566748 23.89314453 -25.57983398 23.20019531 C-25.60605835 21.86553223 -25.60605835 21.86553223 -25.6328125 20.50390625 C-25.65529053 19.62508789 -25.67776855 18.74626953 -25.70092773 17.84082031 C-25.37961301 13.42118805 -23.48306685 10.43556135 -20.51171875 7.23828125 C-13.75430602 1.71932673 -8.64227824 0.0918785 0 0 Z M-91.69194794 60.11899567 C-94.32824005 64.63788778 -94.06568217 68.56853492 -94.01965332 73.71447754 C-94.02589328 74.781029 -94.03213325 75.84758046 -94.0385623 76.94645166 C-94.05453872 80.52637381 -94.04186928 84.10561947 -94.02929688 87.68554688 C-94.0347159 90.24957172 -94.04183731 92.81359344 -94.05053711 95.37760925 C-94.06690197 101.62248587 -94.06448071 107.86711128 -94.05288655 114.11199129 C-94.04385401 119.18716979 -94.04262743 124.2622944 -94.04698181 129.33747864 C-94.04759474 130.05972686 -94.04820768 130.78197508 -94.04883918 131.52610961 C-94.05011808 132.9933303 -94.05141493 134.46055097 -94.05272955 135.92777163 C-94.0641365 149.68682664 -94.05101987 163.44577506 -94.02952808 177.20481259 C-94.01165696 189.01143235 -94.01476104 200.8178948 -94.03320312 212.62451172 C-94.05460784 226.33423055 -94.06303785 240.04385595 -94.05075407 253.75358915 C-94.04947987 255.21542071 -94.04822239 256.67725228 -94.04698181 258.13908386 C-94.04636471 258.85833814 -94.04574761 259.57759242 -94.04511181 260.31864229 C-94.0416577 265.38789147 -94.04748854 270.4570814 -94.05690002 275.52632141 C-94.06928811 282.34881095 -94.06047191 289.1709572 -94.037323 295.993433 C-94.03202442 298.50047117 -94.03356919 301.0075343 -94.04237366 303.51456261 C-94.05326677 306.93074403 -94.03963966 310.34596511 -94.01965332 313.76208496 C-94.02857621 314.75964766 -94.03749909 315.75721036 -94.04669237 316.78500223 C-93.99991944 320.89254917 -93.81049341 323.63130691 -91.97815704 327.3537817 C-88.58688784 329.94490482 -85.64342159 329.93069793 -81.54077148 329.86647034 C-80.73163268 329.87356472 -79.92249388 329.88065911 -79.08883572 329.88796848 C-76.37384674 329.9055899 -73.66028157 329.88742329 -70.9453125 329.86938477 C-69.00049181 329.87452201 -67.05567577 329.88180181 -65.11087036 329.8910675 C-59.82570858 329.90961445 -54.54104994 329.89662205 -49.25590897 329.87697721 C-43.72976322 329.86061663 -38.20364998 329.86939998 -32.67749023 329.87449646 C-23.39656518 329.87902031 -14.11584148 329.86312943 -4.83496094 329.83520508 C5.90105909 329.80315194 16.63671591 329.80316801 27.37276173 329.82041985 C37.69271724 329.83627348 48.01253935 329.82955885 58.33248901 329.81248283 C62.72797182 329.80560311 67.123348 329.80665425 71.51882935 329.81402779 C76.69322729 329.82167853 81.86721098 329.80960398 87.04153824 329.78217888 C88.94266658 329.77528125 90.8438335 329.77521176 92.74496078 329.78239441 C95.33621704 329.79105765 97.92618563 329.77518698 100.51733398 329.75294495 C101.2733619 329.76118571 102.02938982 329.76942648 102.80832767 329.77791697 C105.95722442 329.72787735 108.19153207 329.40428617 110.95471954 327.85852718 C113.4059892 323.670284 113.0383744 319.56668949 112.99621582 314.79968262 C113.00245578 313.72511291 113.00869575 312.6505432 113.0151248 311.54341078 C113.03112302 307.93041228 113.01842332 304.31808204 113.00585938 300.70507812 C113.01127743 298.11987412 113.0183983 295.53467319 113.02709961 292.94947815 C113.04490018 286.649342 113.0410381 280.34939629 113.02944905 274.04925263 C113.020421 268.92970536 113.01918799 263.81021152 113.02354431 258.69065857 C113.02446371 257.59832384 113.02446371 257.59832384 113.02540168 256.48392174 C113.02668056 255.00461978 113.02797742 253.52531784 113.02929205 252.04601592 C113.04070234 238.16968032 113.02757713 224.29345036 113.00609058 210.41713208 C112.98821916 198.50671352 112.99132314 186.5964509 113.00976562 174.68603516 C113.03116444 160.85987101 113.03960366 147.03379949 113.02731657 133.2076211 C113.02604235 131.73371539 113.02478487 130.25980967 113.02354431 128.78590393 C113.02292721 128.06068573 113.02231011 127.33546753 113.02167431 126.58827302 C113.01821843 121.47398214 113.02405485 116.35974993 113.03346252 111.24546814 C113.04584265 104.36390841 113.03704752 97.48264865 113.0138855 90.60111809 C113.00858307 88.07108489 113.0101382 85.54102696 113.01893616 83.01100349 C113.02981418 79.56595671 113.01622065 76.12186526 112.99621582 72.67687988 C113.00513871 71.66794033 113.01406159 70.65900077 113.02325487 69.61948729 C113.01556006 64.27777164 113.01556006 64.27777164 110.66851044 59.61425018 C107.44449774 57.57953689 104.88111131 57.78760141 101.09765625 57.84765625 C100.3930426 57.85331604 99.68842896 57.85897583 98.96246338 57.86480713 C96.72036697 57.88713047 94.47989137 57.93731371 92.23828125 57.98828125 C90.7148669 58.00835173 89.19142739 58.02660155 87.66796875 58.04296875 C83.94088295 58.08698007 80.21474038 58.15597753 76.48828125 58.23828125 C76.4625 59.058125 76.43671875 59.87796875 76.41015625 60.72265625 C76.3534375 61.8003125 76.29671875 62.87796875 76.23828125 63.98828125 C76.191875 65.055625 76.14546875 66.12296875 76.09765625 67.22265625 C75.35720369 70.88694711 74.36675533 71.9152443 71.48828125 74.23828125 C69.07070923 74.74443913 69.07070923 74.74443913 66.32666016 74.75294495 C65.28358704 74.7656694 64.24051392 74.77839386 63.16583252 74.79150391 C62.02700623 74.78497803 60.88817993 74.77845215 59.71484375 74.77172852 C58.51124207 74.78034409 57.30764038 74.78895966 56.06756592 74.7978363 C52.76977604 74.81664918 49.4729907 74.81739155 46.1752243 74.80851483 C43.4216238 74.80340366 40.66811339 74.81069841 37.91452217 74.81798691 C31.41884608 74.83498542 24.92340491 74.83142027 18.42773438 74.81469727 C11.72692258 74.79776923 5.02676189 74.81361914 -1.67397881 74.84592015 C-7.42868813 74.87260957 -13.18319467 74.8798941 -18.93795967 74.87140507 C-22.37437518 74.8664746 -25.81039878 74.86869727 -29.24676514 74.88919258 C-33.07753032 74.91094685 -36.90750932 74.89215836 -40.73828125 74.86938477 C-41.87710754 74.88107697 -43.01593384 74.89276917 -44.18927002 74.90481567 C-51.85570071 74.81181096 -51.85570071 74.81181096 -55.20947266 71.87974548 C-56.66982228 68.91758548 -57.10311805 66.71674583 -57.26171875 63.42578125 C-57.3184375 62.44996094 -57.37515625 61.47414062 -57.43359375 60.46875 C-57.459375 59.73269531 -57.48515625 58.99664062 -57.51171875 58.23828125 C-61.99567178 58.1144888 -66.47871477 58.02385554 -70.96386719 57.96362305 C-72.48878305 57.93851022 -74.0135789 57.90441242 -75.53808594 57.86108398 C-77.73272301 57.80028081 -79.92576685 57.77204238 -82.12109375 57.75 C-83.44077148 57.72381592 -84.76044922 57.69763184 -86.12011719 57.6706543 C-89.55104786 57.94313827 -89.55104786 57.94313827 -91.69194794 60.11899567 Z " fill="#03436B" transform="translate(189.51171875,15.76171875)"/>
<path d="M0 0 C12.6100474 4.96984221 20.74186931 12.60609104 26.9921875 24.61328125 C30.07943519 31.95917912 31.11682479 40.19061556 29.65625 48.046875 C27.59616415 51.08090628 25.95447063 52.79476519 22.27583122 53.50914383 C19.18871736 53.70034592 16.13769032 53.72212209 13.04467773 53.69384766 C11.87019073 53.70260925 10.69570374 53.71137085 9.48562622 53.72039795 C6.27259668 53.73861129 3.06060008 53.73437617 -0.15241361 53.71850252 C-3.51780404 53.70582199 -6.88312669 53.7175893 -10.2485199 53.72543335 C-15.89847155 53.7345225 -21.54809609 53.7225604 -27.19799805 53.69873047 C-33.72787714 53.67150687 -40.25697595 53.68034432 -46.78683621 53.7078625 C-52.39721208 53.73055821 -58.00735318 53.73375197 -63.61776012 53.72066915 C-66.96695334 53.71287864 -70.31577983 53.71182161 -73.66494942 53.72835159 C-77.39769732 53.74102131 -81.128937 53.72173448 -84.86157227 53.69384766 C-85.9707753 53.70396881 -87.07997833 53.71408997 -88.22279358 53.72451782 C-95.68767932 53.62096624 -95.68767932 53.62096624 -99.02598572 50.69979858 C-102.11584332 44.47929602 -101.13578241 37.14491327 -99.4609375 30.59375 C-94.58121059 16.95636752 -86.99255047 8.33815268 -74.31640625 1.38671875 C-67.13606068 -1.84962623 -57.2869011 -2.61850516 -49.79296875 -0.09375 C-47.93275373 0.87314142 -46.13264858 1.9536592 -44.34375 3.046875 C-36.54610747 5.54021487 -28.7084572 4.20928312 -21.34375 1.046875 C-20.333125 0.49 -19.3225 -0.066875 -18.28125 -0.640625 C-12.08928108 -3.40724941 -6.20820061 -2.03107798 0 0 Z " fill="#02436D" transform="translate(234.34375,189.953125)"/>
<path d="M0 0 C1.77929849 1.0563053 3.53473418 2.1551119 5.25 3.3125 C5.86101562 3.69535156 6.47203125 4.07820313 7.1015625 4.47265625 C13.78280631 9.25231528 17.43513557 17.57018845 19.25 25.3125 C20.34287962 36.95293871 18.91753844 46.54388813 12.0625 56.125 C5.25198668 64.22516371 -3.20109827 68.39065311 -13.62890625 69.6640625 C-23.25989682 70.14121718 -31.60618192 67.15720766 -39.125 61.125 C-46.02859896 54.5234335 -50.19234801 46.25214212 -51.0859375 36.734375 C-51.21986894 24.14481998 -49.11291387 15.74571178 -40.265625 6.546875 C-29.22932569 -3.25555234 -13.61779794 -6.68042918 0 0 Z " fill="#03436D" transform="translate(214.75,112.6875)"/>
<path d="M0 0 C1.0235257 -0.00188513 2.04705139 -0.00377026 3.10159302 -0.00571251 C4.2792926 -0.01981163 5.45699219 -0.03391075 6.67037964 -0.04843712 C7.95881775 -0.03831596 9.24725586 -0.02819481 10.57473755 -0.01776695 C11.94814209 -0.02454366 13.32153753 -0.0334471 14.69491577 -0.04431725 C18.42232795 -0.06711173 22.1490482 -0.05827428 25.87647247 -0.04242182 C29.77705247 -0.02976331 33.6775732 -0.04150277 37.57815552 -0.04935265 C44.1285567 -0.05844941 50.67867603 -0.04646081 57.22903442 -0.02264977 C64.80234044 0.00456185 72.37497346 -0.00425231 79.94826317 -0.03178179 C86.45032195 -0.05447131 92.95217811 -0.05767381 99.45426369 -0.04458845 C103.33777524 -0.03679295 107.22097044 -0.03575469 111.10446167 -0.05227089 C114.7556585 -0.06671447 118.40598768 -0.05669769 122.05709076 -0.02779961 C124.03628852 -0.01803377 126.01555967 -0.03289008 127.99472046 -0.04843712 C129.76126984 -0.02728844 129.76126984 -0.02728844 131.56350708 -0.00571251 C133.09879562 -0.00288482 133.09879562 -0.00288482 134.6651001 0 C138.32244658 0.86270532 139.36468849 2.5104017 141.33255005 5.6292057 C141.96467678 9.42196611 141.71972807 11.01660327 139.65907192 14.27702332 C137.33255005 16.6292057 137.33255005 16.6292057 134.68351078 17.25841141 C133.66865825 17.26029654 132.65380571 17.26218166 131.60820007 17.26412392 C130.4403598 17.27822304 129.27251953 17.29232216 128.06929016 17.30684853 C126.15301567 17.29166679 126.15301567 17.29166679 124.19802856 17.27617836 C122.83609854 17.28295521 121.47417768 17.29185873 120.11227417 17.30272865 C116.4157837 17.32552368 112.71999095 17.31668491 109.02348828 17.30083323 C105.15407258 17.28817241 101.28471652 17.29991506 97.41529846 17.30776405 C90.91617105 17.31686124 84.41732769 17.30487227 77.91824341 17.28106117 C70.40743937 17.2538609 62.89731418 17.26265528 55.38652664 17.2901932 C48.93625603 17.31289519 42.48618961 17.31607877 36.03589195 17.30299985 C32.18420567 17.29520974 28.33283827 17.29415105 24.48117256 17.3106823 C20.85869769 17.32514362 17.23709624 17.31507668 13.61471558 17.28621101 C11.65360205 17.27646238 9.69241452 17.2912872 7.7313385 17.30684853 C-1.85449482 17.19139928 -1.85449482 17.19139928 -4.96128845 14.27626991 C-7.07213331 11.00135023 -7.38480337 9.4550906 -6.66744995 5.6292057 C-3.65213789 0.8614767 -3.65213789 0.8614767 0 0 Z " fill="#04436C" transform="translate(131.66744995117188,269.37079429626465)"/>
<path d="M0 0 C1.39334312 -0.01051392 1.39334312 -0.01051392 2.81483459 -0.02124023 C5.8860563 -0.03884816 8.95635677 -0.02718639 12.02758789 -0.01367188 C14.16223833 -0.01636621 16.29688758 -0.02024814 18.43153381 -0.02526855 C22.90629761 -0.0311676 27.38074207 -0.02258822 31.85546875 -0.00390625 C37.59017107 0.01886947 43.32412404 0.00577116 49.05879879 -0.01819611 C53.46746967 -0.03265474 57.87596311 -0.02804749 62.28463936 -0.01768494 C64.39894258 -0.01501713 66.51326192 -0.0182893 68.62754631 -0.02760315 C71.58416231 -0.03776801 74.53956785 -0.0222674 77.49609375 0 C78.36950409 -0.00809692 79.24291443 -0.01619385 80.14279175 -0.02453613 C84.17464573 0.03168739 86.32466285 0.2260817 89.85597229 2.33508301 C91.81274414 4.51757812 91.81274414 4.51757812 92.43774414 7.95507812 C91.63659038 12.52165456 90.48555223 13.72149572 86.81274414 16.51757812 C83.7040925 17.23739099 80.67588491 17.19124898 77.49609375 17.14868164 C76.10012215 17.1594146 76.10012215 17.1594146 74.6759491 17.17036438 C71.60516005 17.18724901 68.53583123 17.16785128 65.46508789 17.14648438 C63.32947163 17.14731302 61.19385543 17.14977224 59.0582428 17.15379333 C54.58518244 17.15665109 50.11262289 17.14195059 45.63964844 17.11450195 C39.90373048 17.08039897 34.16870685 17.08644466 28.43274593 17.10516453 C24.02409906 17.11572775 19.61566064 17.10680313 15.20703316 17.09177971 C13.09191062 17.08659387 10.97676635 17.08708455 8.86164665 17.09332466 C5.90728725 17.09876938 2.954213 17.07842592 0 17.05102539 C-0.87543457 17.05755127 -1.75086914 17.06407715 -2.65283203 17.07080078 C-8.57511415 16.97730839 -8.57511415 16.97730839 -11.72825623 14.60923767 C-13.30716482 12.34567355 -13.72993598 11.24910577 -13.68725586 8.51757812 C-13.70272461 7.52757812 -13.70272461 7.52757812 -13.71850586 6.51757812 C-11.85530925 -0.49680912 -6.00197599 -0.05551248 0 0 Z " fill="#044069" transform="translate(138.187255859375,303.482421875)"/>
<path d="M0 0 C1.67542976 0.28604898 3.34385343 0.61781233 5 1 C3.87816502 3.24366996 2.60553445 5.07335866 1 7 C0.34 7 -0.32 7 -1 7 C-1.04574605 41.60012157 -1.08100323 76.20023626 -1.10213066 110.80038153 C-1.10463217 114.88230193 -1.1072208 118.96422227 -1.10986328 123.04614258 C-1.1103879 123.85880286 -1.11091252 124.67146315 -1.11145304 125.50874951 C-1.12016319 138.67904645 -1.1359365 151.84932598 -1.15430559 165.01961259 C-1.17298771 178.52666421 -1.18411314 192.0337067 -1.18817699 205.54077071 C-1.19092556 213.87993875 -1.19961656 222.21905761 -1.21583293 230.55821051 C-1.22637899 236.27137221 -1.22960604 241.98450835 -1.22700275 247.69767908 C-1.22571774 250.99724852 -1.22881356 254.29671326 -1.23841095 257.59627151 C-1.24829615 261.16860571 -1.24599241 264.74072589 -1.24050903 268.31306458 C-1.24924756 269.88746369 -1.24924756 269.88746369 -1.25816262 271.49366885 C-1.25418052 272.4471256 -1.25019842 273.40058234 -1.24609566 274.38293171 C-1.2468551 275.20806399 -1.24761454 276.03319626 -1.24839699 276.88333255 C-1.12698917 279.30128634 -1.12698917 279.30128634 1 282 C1 283.32 1 284.64 1 286 C2.32 286 3.64 286 5 286 C7.451644 287.90683422 7.99328314 288.97984943 9 292 C21.05737084 298.486021 34.4922541 297.66474453 47.7578125 297.5234375 C50.08359291 297.51695264 52.40938018 297.51261866 54.73516846 297.51028442 C60.92303624 297.49765696 67.11030713 297.45381716 73.297966 297.40322876 C79.70068812 297.35600135 86.10350121 297.33735232 92.50634766 297.31445312 C127.16794279 297.17359778 161.82808683 296.80722732 196.48379517 296.1534729 C205.99001768 295.98145077 215.49255015 295.94694339 225 296 C225 295.34 225 294.68 225 294 C227.95481492 291.25624329 228.77471908 291 233 291 C233.268125 290.195625 233.53625 289.39125 233.8125 288.5625 C234.204375 287.716875 234.59625 286.87125 235 286 C235.99 285.67 236.98 285.34 238 285 C237.92095422 287.68755653 237.45570449 289.46811804 235.69140625 291.52734375 C228.82300518 297.7612505 221.41250558 300.61538074 212.18894958 300.50793457 C210.93018929 300.51729451 210.93018929 300.51729451 209.64599949 300.52684355 C206.85932787 300.54268377 204.07354193 300.5302049 201.28686523 300.51757812 C199.27883396 300.52300319 197.27080666 300.53012801 195.26278687 300.53881836 C189.82690577 300.55700756 184.39132936 300.5500026 178.95544314 300.53730202 C173.25902933 300.52715297 167.56264106 300.53657286 161.8662262 300.54284668 C152.30245291 300.55011693 142.73880332 300.54055104 133.17504883 300.52148438 C122.12602724 300.49971068 111.07730085 300.50677323 100.0282864 300.52879 C90.53164219 300.54695424 81.03508672 300.54949747 71.53843075 300.53903532 C65.87087705 300.53280686 60.20346202 300.53194716 54.53591728 300.54518127 C49.20797688 300.5567542 43.8804164 300.54868741 38.55251694 300.52560425 C36.59984403 300.52032517 34.64713903 300.52181718 32.69447899 300.53065491 C30.02391313 300.54162557 27.35455612 300.52782889 24.68406677 300.50793457 C23.53176289 300.5213189 23.53176289 300.5213189 22.35618013 300.53497362 C14.1430377 300.41672068 7.82053219 296.69118703 2 291 C-4.25037156 282.79314095 -5.29834573 275.18814313 -5.26742554 265.12039185 C-5.27195665 264.03453604 -5.27648776 262.94868023 -5.28115618 261.8299197 C-5.29380192 258.19662829 -5.29217968 254.56348674 -5.29052734 250.93017578 C-5.29651242 248.32308764 -5.30331791 245.71600127 -5.31088257 243.10891724 C-5.32746787 236.76545858 -5.33299097 230.42203711 -5.33410732 224.07855858 C-5.33505885 218.92099775 -5.33917435 213.76344914 -5.34550858 208.60589218 C-5.36311325 193.97305142 -5.37234851 179.34023996 -5.37084763 164.70738854 C-5.37076772 163.91917005 -5.3706878 163.13095156 -5.37060547 162.31884766 C-5.37052371 161.52966343 -5.37044195 160.74047921 -5.37035771 159.92738031 C-5.36954474 147.13659897 -5.38868707 134.34593536 -5.4168822 121.55518807 C-5.44562553 108.41174038 -5.45942174 95.26835009 -5.45769465 82.12487018 C-5.45703131 74.74977256 -5.46249914 67.37479842 -5.48405075 59.99972916 C-5.50418932 53.06396864 -5.50357408 46.12847284 -5.48901749 39.19269943 C-5.48692536 36.64862945 -5.49165419 34.10454324 -5.5037384 31.5605011 C-5.51917864 28.08455252 -5.50988959 24.60950468 -5.49447632 21.13357544 C-5.50476344 20.1295736 -5.51505057 19.12557177 -5.52564943 18.09114563 C-5.46466733 11.85750305 -4.67084668 4.67084668 0 0 Z " fill="#143B55" transform="translate(80,66)"/>
<path d="M0 0 C0.66 0.33 1.32 0.66 2 1 C4.61993742 1.09567323 7.21316586 1.13013585 9.83328247 1.12025452 C10.65170179 1.12110894 11.47012111 1.12196337 12.31334102 1.12284368 C15.07105782 1.12449813 17.82871454 1.11897767 20.58642578 1.11352539 C22.55713906 1.11324349 24.52785245 1.11340132 26.49856567 1.1139679 C31.86192169 1.11425574 37.22525551 1.1083611 42.58860636 1.10139394 C48.18869827 1.09515824 53.78879065 1.09455643 59.3888855 1.09336853 C69.99944762 1.09025585 80.60999949 1.08204332 91.22055709 1.07201904 C103.29776047 1.06085594 115.37496432 1.05534695 127.45217156 1.05032361 C152.3014534 1.03986066 177.15072613 1.02226244 202 1 C200.25 4.875 200.25 4.875 198 6 C195.37960583 6.08354483 192.78676288 6.10537075 190.16671753 6.08229065 C189.34829821 6.07906152 188.52987889 6.07583239 187.68665898 6.07250541 C184.9289177 6.06038772 182.17127394 6.04102379 179.41357422 6.02172852 C177.4428631 6.01159024 175.47214966 6.00189608 173.50143433 5.99261475 C168.13805551 5.96608858 162.77473055 5.93331835 157.41139364 5.89946485 C151.81131973 5.86516644 146.2112169 5.83655808 140.6111145 5.80735779 C130.00053206 5.75116107 119.38998583 5.68981366 108.77944291 5.62663645 C96.70225942 5.55497581 84.62504688 5.48902566 72.54782844 5.42356598 C47.69851461 5.28875182 22.84924611 5.14673127 -2 5 C-2 4.01 -2 3.02 -2 2 C-1.34 2 -0.68 2 0 2 C0 1.34 0 0.68 0 0 Z " fill="#2E4E6A" transform="translate(98,343)"/>
<path d="M0 0 C1.67542976 0.28604898 3.34385343 0.61781233 5 1 C3.87816502 3.24366996 2.60553445 5.07335866 1 7 C0.34 7 -0.32 7 -1 7 C-1 7.99 -1 8.98 -1 10 C-1.66 10 -2.32 10 -3 10 C-3 97.45 -3 184.9 -3 275 C-3.66 275.33 -4.32 275.66 -5 276 C-5.09158842 242.26638995 -5.16205541 208.53281088 -5.20426132 174.79910407 C-5.20926405 170.81504379 -5.21444134 166.83098375 -5.21972656 162.84692383 C-5.2207758 162.05378109 -5.22182505 161.26063836 -5.22290608 160.44346099 C-5.2403035 147.60698143 -5.27183752 134.77057364 -5.30861118 121.93413664 C-5.34603909 108.75928308 -5.36823976 95.58446707 -5.37635398 82.40956253 C-5.38183793 74.28224021 -5.39914813 66.15512079 -5.43166587 58.02786093 C-5.45534209 51.79211987 -5.45781516 45.55653296 -5.45243073 39.3207531 C-5.45353084 36.76539232 -5.46148298 34.21002384 -5.4768219 31.65470886 C-5.49675255 28.16308423 -5.49192695 24.67232439 -5.48101807 21.18067932 C-5.49266943 20.17190265 -5.5043208 19.16312597 -5.51632524 18.12378031 C-5.46363901 11.87553016 -4.68335377 4.68335377 0 0 Z " fill="#0C2D43" transform="translate(80,66)"/>
<path d="M0 0 C-0.61875 0.28875 -1.2375 0.5775 -1.875 0.875 C-4.13325765 1.93720042 -4.13325765 1.93720042 -6 4 C-6.825 4.144375 -7.65 4.28875 -8.5 4.4375 C-11.34936529 4.7765556 -11.34936529 4.7765556 -13 8 C-14.65948148 9.01187895 -16.32580562 10.0126546 -18 11 C-18.33 11.66 -18.66 12.32 -19 13 C-19.66 13 -20.32 13 -21 13 C-21.16628906 14.06541016 -21.16628906 14.06541016 -21.3359375 15.15234375 C-22.28240699 19.21102764 -24.17661826 22.66945238 -26.0390625 26.37890625 C-27.09606684 29.26203597 -26.86687481 30.16739498 -26 33 C-26.495 33.804375 -26.99 34.60875 -27.5 35.4375 C-29.2480941 37.86711138 -29.2480941 37.86711138 -28.8125 40.5 C-27.53434164 45.09789556 -27.53434164 45.09789556 -25 49 C-23.44336964 49.08373482 -21.88289365 49.09691975 -20.32408142 49.08229065 C-19.31300827 49.07525116 -18.30193512 49.06821167 -17.26022339 49.06095886 C-16.14173004 49.04801285 -15.02323669 49.03506683 -13.87084961 49.02172852 C-12.11498787 49.0073172 -12.11498787 49.0073172 -10.32365417 48.99261475 C-7.10475994 48.96520686 -3.88594679 48.93331242 -0.66711497 48.89946485 C2.69344406 48.86517392 6.05405119 48.83656075 9.41465759 48.80735779 C15.78245719 48.75115376 22.15019657 48.68980774 28.51793045 48.62663645 C35.76566423 48.55498381 43.01344631 48.48902978 50.26123822 48.42356598 C65.17422153 48.28874005 80.08712861 48.14672016 95 48 C95 47.01 95 46.02 95 45 C94.505 45.99 94.505 45.99 94 47 C93.34 47 92.68 47 92 47 C92.30679688 46.43796875 92.61359375 45.8759375 92.9296875 45.296875 C94.02957585 42.93653066 94.60095851 40.79534438 95.125 38.25 C95.29257812 37.45078125 95.46015625 36.6515625 95.6328125 35.828125 C95.81457031 34.92320312 95.81457031 34.92320312 96 34 C95.34 34 94.68 34 94 34 C92.68758632 29.81668141 92 26.35419932 92 22 C91.01 20.515 91.01 20.515 90 19 C90 18.01 90 17.02 90 16 C89.34 16 88.68 16 88 16 C88 15.34 88 14.68 88 14 C87.0409375 13.8453125 87.0409375 13.8453125 86.0625 13.6875 C85.381875 13.460625 84.70125 13.23375 84 13 C83.505 11.515 83.505 11.515 83 10 C82.01 9.01 82.01 9.01 81 8 C83.125 8 83.125 8 86 9 C93.93591075 16.95668539 98.09072948 27.40561702 98.375 38.4375 C98.42398438 39.73558594 98.47296875 41.03367188 98.5234375 42.37109375 C98 46 98 46 96.19300842 48.68637085 C91.42004006 52.14482672 87.14648094 51.69960927 81.38842773 51.64697266 C80.21394073 51.65573425 79.03945374 51.66449585 77.82937622 51.67352295 C74.61634668 51.69173629 71.40435008 51.68750117 68.19133639 51.67162752 C64.82594596 51.65894699 61.46062331 51.6707143 58.0952301 51.67855835 C52.44527845 51.6876475 46.79565391 51.6756854 41.14575195 51.65185547 C34.61587286 51.62463187 28.08677405 51.63346932 21.55691379 51.6609875 C15.94653792 51.68368321 10.33639682 51.68687697 4.72598988 51.67379415 C1.37679666 51.66600364 -1.97202983 51.66494661 -5.32119942 51.68147659 C-9.05394732 51.69414631 -12.785187 51.67485948 -16.51782227 51.64697266 C-17.6270253 51.65709381 -18.73622833 51.66721497 -19.87904358 51.67764282 C-27.34392932 51.57409124 -27.34392932 51.57409124 -30.68223572 48.65292358 C-33.77209332 42.43242102 -32.79203241 35.09803827 -31.1171875 28.546875 C-26.35651273 15.24220777 -19.06758589 6.78931702 -6.83984375 -0.2421875 C-4.30087183 -1.28796362 -2.59002199 -0.71945055 0 0 Z " fill="#254D69" transform="translate(166,192)"/>
<path d="M0 0 C3.00391674 -0.33376853 4.56080523 -0.27961562 7.14054966 1.36279202 C10.05023223 5.48951589 9.54812922 9.51297747 9.50120544 14.44532776 C9.50673984 15.52060303 9.51227424 16.5958783 9.51797634 17.70373768 C9.53162659 21.31908191 9.51658931 24.93374104 9.50170898 28.54907227 C9.50549053 31.13589777 9.5109892 33.72272125 9.51808167 36.30953979 C9.53202472 42.61335985 9.52445044 48.91697979 9.50940608 55.22079033 C9.49255973 62.55846444 9.49575445 69.8960885 9.49950016 77.23377597 C9.50538058 90.32345299 9.49119951 103.41303386 9.46655273 116.50268555 C9.44262649 129.21105554 9.43555013 141.91929708 9.44604492 154.62768555 C9.45744742 168.46005997 9.45939287 182.29237496 9.44494683 196.12474865 C9.44342095 197.59891728 9.44190059 199.07308592 9.44038582 200.54725456 C9.439628 201.27261348 9.43887019 201.99797239 9.43808941 202.74531187 C9.43334179 207.8630646 9.43520137 212.98079084 9.43945122 218.09854317 C9.44488469 224.98252387 9.43416314 231.86632294 9.41249657 238.75027084 C9.40691431 241.28233551 9.40647648 243.81441729 9.41144943 246.34648323 C9.41736916 249.79174152 9.40496052 253.2364475 9.38768005 256.68165588 C9.3936901 257.69350828 9.39970014 258.70536068 9.40589231 259.74787527 C9.39745237 260.66751466 9.38901243 261.58715405 9.38031673 262.53466129 C9.37877304 263.72809748 9.37877304 263.72809748 9.37719816 264.94564348 C8.91067264 267.48650887 7.95864254 268.3801045 6 270 C5.06576355 266.98968256 4.95550089 266.13349732 6 263 C6.09133875 261.5398082 6.1273139 260.07579329 6.12863445 258.61274815 C6.13347112 257.25941453 6.13347112 257.25941453 6.1384055 255.87874085 C6.1368569 254.88634319 6.1353083 253.89394553 6.13371277 252.87147522 C6.1371111 251.29152894 6.1371111 251.29152894 6.14057809 249.67966455 C6.14693312 246.13286759 6.14608777 242.58610869 6.14526367 239.03930664 C6.1482542 236.5035141 6.15165649 233.96772202 6.15544128 231.43193054 C6.16337515 225.24869034 6.16649638 219.0654642 6.16705366 212.88221938 C6.16752851 207.85753307 6.16958172 202.83284991 6.17275429 197.8081646 C6.18156214 183.56906777 6.18617341 169.32997848 6.18542381 155.09087891 C6.18538386 154.32298116 6.1853439 153.5550834 6.18530273 152.76391602 C6.18524141 151.61066672 6.18524141 151.61066672 6.18517885 150.43411946 C6.18477226 137.96953646 6.19434476 125.50498365 6.2084411 113.04040939 C6.22279369 100.24855257 6.22971191 87.45671049 6.22884732 74.66484541 C6.22851499 67.48047482 6.23127822 60.29613589 6.24202538 53.11177254 C6.25206421 46.35753235 6.25180648 39.60337026 6.24450874 32.849123 C6.24345914 30.36584882 6.24584787 27.88257054 6.2518692 25.39930344 C6.25953911 22.0179585 6.25497755 18.63684798 6.24723816 15.25550842 C6.25238172 14.26534149 6.25752529 13.27517455 6.26282471 12.25500256 C6.25592652 10.89775732 6.25592652 10.89775732 6.24888897 9.51309299 C6.24910634 8.73249533 6.24932371 7.95189767 6.24954766 7.14764553 C5.96383691 4.68877486 5.32114993 3.0868738 4 1 C1.94999129 0.19471111 1.94999129 0.19471111 0 0 Z " fill="#E7F2F3" transform="translate(293,74)"/>
<path d="M0 0 C3 1 3 1 4 3 C4.09307849 4.46439033 4.12373802 5.93297096 4.12304783 7.40031624 C4.12503888 8.33088156 4.12702993 9.26144688 4.12908131 10.22021115 C4.12616847 11.24937771 4.12325563 12.27854428 4.12025452 13.33889771 C4.12110894 14.42683148 4.12196337 15.51476526 4.12284368 16.63566673 C4.12449954 20.3054674 4.11897536 23.97522303 4.11352539 27.64501953 C4.11324352 30.26597085 4.11340126 32.88692226 4.1139679 35.50787354 C4.11449301 41.16311236 4.11134747 46.81833967 4.10573006 52.47357559 C4.09761342 60.65016216 4.09499967 68.82674315 4.09374207 77.00333332 C4.0915518 90.26833865 4.08489241 103.53333784 4.07543945 116.79833984 C4.06626467 129.68636036 4.05918416 142.57437922 4.05493164 155.46240234 C4.05466892 156.25641772 4.05440619 157.0504331 4.05413551 157.86850955 C4.0528305 161.85173122 4.05156679 165.83495291 4.05032361 169.8181746 C4.0399518 202.87878754 4.02233418 235.93939295 4 269 C2.68 269.66 1.36 270.32 0 271 C0.16240453 270.43463547 0.32480905 269.86927094 0.49213493 269.28677416 C1.01896737 266.91459526 1.12534552 264.83931001 1.12584114 262.41161346 C1.12844889 261.48998303 1.13105664 260.56835259 1.13374341 259.61879396 C1.13151268 258.60985441 1.12928196 257.60091485 1.12698364 256.56140137 C1.12854363 255.48683166 1.13010362 254.41226195 1.13171089 253.30512953 C1.13571021 249.69233817 1.13253533 246.07958858 1.12939453 242.46679688 C1.13074904 239.88159663 1.13252926 237.29639658 1.13470459 234.7111969 C1.13915469 228.41111791 1.13818918 222.11105083 1.13529195 215.81097138 C1.13303494 210.69143903 1.13272669 205.57191002 1.13381577 200.45237732 C1.133969 199.72415416 1.13412223 198.99593101 1.13428011 198.24564049 C1.13459983 196.76633855 1.13492404 195.28703661 1.1352527 193.80773467 C1.13810526 179.93143749 1.13482396 166.05514692 1.12945233 152.17885083 C1.1249845 140.26848188 1.12576049 128.35812268 1.13037109 116.44775391 C1.13572079 102.62161425 1.1378306 88.79548039 1.13475883 74.96933985 C1.13444028 73.49543413 1.13412591 72.0215284 1.13381577 70.54762268 C1.13358435 69.45979538 1.13358435 69.45979538 1.13334826 68.34999177 C1.1324843 63.23572206 1.13394341 58.12145603 1.13629532 53.00718689 C1.1393903 46.12573001 1.1371915 39.24429189 1.13140106 32.36283684 C1.13007545 29.83279895 1.13046422 27.30275952 1.13266373 24.77272224 C1.13538298 21.32799319 1.13198447 17.88332385 1.12698364 14.43859863 C1.12921436 13.42965908 1.13144509 12.42071952 1.13374341 11.38120604 C1.13113566 10.4595756 1.12852791 9.53794517 1.12584114 8.58838654 C1.12567879 7.79314213 1.12551644 6.99789773 1.12534916 6.17855501 C1.00003529 4.00061326 0.60106723 2.09244223 0 0 Z " fill="#1D4261" transform="translate(300,74)"/>
<path d="M0 0 C18.18458491 -0.11675674 36.36907265 -0.20495047 54.55395126 -0.25906086 C62.99735792 -0.28485212 71.4405318 -0.32001999 79.88378906 -0.37719727 C87.24220503 -0.42700434 94.60045245 -0.45928432 101.9590323 -0.47044247 C105.85611729 -0.47696592 109.75272003 -0.49231614 113.64965057 -0.52865028 C117.31706921 -0.56256774 120.98380661 -0.57306194 124.65136719 -0.56553841 C126.64024539 -0.56757166 128.62904925 -0.59448919 130.61773682 -0.62210083 C131.80121704 -0.61522751 132.98469727 -0.60835419 134.20404053 -0.60127258 C135.2327615 -0.60588155 136.26148247 -0.61049051 137.3213768 -0.61523914 C140.99541878 0.22863261 142.02899176 1.87057691 144 5 C144.63204048 8.79224291 144.38590326 10.38816078 142.32862473 13.64992046 C140 16 140 16 137.33699417 16.61523914 C136.31564754 16.61063018 135.29430092 16.60602121 134.24200439 16.60127258 C132.47940529 16.61158257 132.47940529 16.61158257 130.68119812 16.62210083 C129.39582657 16.60412445 128.11045502 16.58614807 126.78613281 16.56762695 C125.41610262 16.56621627 124.04606864 16.56700885 122.67604065 16.56983948 C118.95912259 16.57127431 115.243011 16.54187487 111.5262804 16.50696969 C107.64123942 16.47571678 103.75618001 16.47277632 99.87103271 16.46684265 C92.51509116 16.45130098 85.15952108 16.41026845 77.80374312 16.3600952 C69.42901339 16.30421155 61.05426592 16.27671775 52.67939615 16.25161803 C35.45271588 16.19935262 18.22639722 16.11140439 1 16 C3.60600393 13.39399607 4.69619026 13.74189052 8.32766724 13.7215271 C10.02303619 13.70478188 10.02303619 13.70478188 11.75265503 13.68769836 C12.99846344 13.68553818 14.24427185 13.68337799 15.52783203 13.68115234 C17.48873779 13.66608391 17.48873779 13.66608391 19.48925781 13.65071106 C23.07992141 13.62334414 26.67054563 13.60824196 30.26128626 13.59528303 C34.01162911 13.57968163 37.7618912 13.55288196 41.51217651 13.5272522 C48.61652265 13.48041126 55.72088389 13.44369296 62.82530582 13.41057932 C70.9123098 13.3723954 78.99923277 13.32297553 87.08616853 13.27259517 C103.72405423 13.1691963 120.36198481 13.07996188 137 13 C140.06830491 8.66827543 138.7646746 7.11739679 138 1 C92.46 1 46.92 1 0 1 C0 0.67 0 0.34 0 0 Z " fill="#264661" transform="translate(129,270)"/>
<path d="M0 0 C1.16781006 0.00523682 2.33562012 0.01047363 3.53881836 0.01586914 C4.79887695 0.0190918 6.05893555 0.02231445 7.35717773 0.02563477 C8.6976732 0.03399136 10.03816799 0.04245632 11.37866211 0.05102539 C12.72306153 0.05603879 14.06746271 0.06060197 15.41186523 0.06469727 C18.71334151 0.07653051 22.01473014 0.09301568 25.31616211 0.11352539 C27.40847609 4.29815334 26.31616211 9.43496911 26.31616211 14.11352539 C16.41616211 14.11352539 6.51616211 14.11352539 -3.68383789 14.11352539 C-3.68383789 0.15582504 -3.68383789 0.15582504 0 0 Z " fill="#E9EAE7" transform="translate(187.683837890625,36.886474609375)"/>
<path d="M0 0 C0.33 0 0.66 0 1 0 C1.00135653 0.56805668 1.00271306 1.13611335 1.00411069 1.72138387 C1.08470578 35.36557104 1.17563768 69.00971312 1.28005161 102.65383472 C1.29257095 106.69069101 1.30500365 110.72754757 1.31738281 114.7644043 C1.31984881 115.56809274 1.3223148 116.37178118 1.32485552 117.19982382 C1.36461328 130.22460331 1.39734724 143.2493915 1.42749982 156.27419636 C1.45857935 169.63211367 1.49717367 182.98999392 1.54279006 196.34786958 C1.5707149 204.5948853 1.59273055 212.84187381 1.60726251 221.08892419 C1.61777914 226.73903676 1.63557433 232.38909672 1.65916704 238.03916971 C1.67257532 241.30226554 1.68162728 244.56527287 1.68421364 247.82839775 C1.68751671 251.36135434 1.70294101 254.8940519 1.7215271 258.42695618 C1.71959237 259.46488274 1.71765763 260.50280931 1.71566427 261.5721882 C1.72312976 262.51519475 1.73059525 263.45820131 1.73828697 264.42978382 C1.74056529 265.24580281 1.74284362 266.0618218 1.74519098 266.90256864 C1.87713801 269.30353927 1.87713801 269.30353927 4 272 C4 273.32 4 274.64 4 276 C5.32 276 6.64 276 8 276 C10.451644 277.90683422 10.99328314 278.97984943 12 282 C14.5342007 283.04004769 16.95185202 283.89978397 19.5625 284.6875 C20.27341797 284.91244141 20.98433594 285.13738281 21.71679688 285.36914062 C23.47448819 285.92358017 25.23684098 286.46320189 27 287 C27 287.66 27 288.32 27 289 C21.25319568 290.23145807 18.00281706 290.17456598 12.87890625 287.2265625 C7.20862926 283.52496796 2.63149913 279.32188835 0 273 C-1.02423265 266.63084525 -1.12577522 260.41860869 -1.08229065 253.97753906 C-1.07906152 252.88856229 -1.07583239 251.79958551 -1.07250541 250.67760944 C-1.06047206 247.04024489 -1.0410906 243.40295736 -1.02172852 239.765625 C-1.01158131 237.15364243 -1.00188811 234.54165806 -0.99261475 231.92967224 C-0.97195574 226.31217696 -0.94753694 220.69470823 -0.92053413 215.07723999 C-0.88149853 206.95541457 -0.84818034 198.83357354 -0.81623887 190.71171749 C-0.76425631 177.53321623 -0.70767666 164.35473891 -0.64819336 151.17626953 C-0.59043502 138.37777639 -0.53484961 125.57927685 -0.48217773 112.78076172 C-0.47892802 111.99130968 -0.4756783 111.20185764 -0.4723301 110.38848281 C-0.45603991 106.42786915 -0.43979235 102.46725531 -0.42356598 98.50664139 C-0.28898572 65.67106453 -0.14693947 32.83552391 0 0 Z " fill="#0B3F62" transform="translate(77,76)"/>
<path d="M0 0 C0.33 0 0.66 0 1 0 C1.03738281 0.96421875 1.07476562 1.9284375 1.11328125 2.921875 C1.17902344 4.18515625 1.24476563 5.4484375 1.3125 6.75 C1.39951172 8.62945312 1.39951172 8.62945312 1.48828125 10.546875 C2.02651437 14.17892138 2.47752849 15.42912363 5 18 C7.34501226 18.60508526 7.34501226 18.60508526 10.03031921 18.51898193 C11.06938416 18.53289474 12.1084491 18.54680756 13.17900085 18.56114197 C14.88803337 18.55359642 14.88803337 18.55359642 16.6315918 18.54589844 C18.43178268 18.56140495 18.43178268 18.56140495 20.26834106 18.57722473 C23.55965191 18.60168651 26.85011753 18.60848863 30.14146018 18.60750484 C33.58086829 18.61063069 37.02010648 18.63624192 40.45942688 18.65948486 C46.97232108 18.7000739 53.48511509 18.7203923 59.99811631 18.73345876 C67.41288687 18.74931906 74.82748668 18.78773048 82.24215829 18.82805204 C97.49472147 18.91049061 112.74725086 18.96455787 128 19 C127 21 127 21 125.24349213 21.61943626 C122.81387051 22.03157316 120.56880651 22.10921633 118.10412598 22.08901978 C117.11995193 22.08342545 116.13577789 22.07783112 115.1217804 22.07206726 C114.04840927 22.06069229 112.97503815 22.04931732 111.86914062 22.03759766 C110.73381393 22.02959641 109.59848724 22.02159515 108.42875671 22.01335144 C104.67119328 21.98544298 100.91374485 21.94997474 97.15625 21.9140625 C94.54838313 21.89229588 91.94051359 21.87084623 89.3326416 21.84970093 C83.86511572 21.80453811 78.3976412 21.75506443 72.93017578 21.703125 C66.61136686 21.64315904 60.29252829 21.59037329 53.97362566 21.54135668 C47.89205823 21.49398405 41.81055125 21.44116345 35.72904968 21.38599777 C33.14223941 21.36307097 30.55541614 21.34156504 27.96858215 21.32149124 C24.35594649 21.2927403 20.74342277 21.25780268 17.13085938 21.22119141 C16.05748825 21.2138649 14.98411713 21.20653839 13.8782196 21.19898987 C12.89404556 21.18775589 11.90987152 21.17652191 10.89587402 21.16494751 C10.04195824 21.15719614 9.18804245 21.14944477 8.30825043 21.14145851 C6.0824807 21.00505474 4.1374722 20.61788404 2 20 C2 19.34 2 18.68 2 18 C1.34 18 0.68 18 0 18 C-1.12536783 12.65450281 -2.53466037 5.06932075 0 0 Z " fill="#DBE8F2" transform="translate(133,224)"/>
<path d="M0 0 C1.11761719 0.09861328 1.11761719 0.09861328 2.2578125 0.19921875 C4.09035965 0.36367811 5.92052655 0.55428889 7.75 0.75 C7.75 1.08 7.75 1.41 7.75 1.75 C6.85796875 1.78738281 5.9659375 1.82476562 5.046875 1.86328125 C3.87640625 1.92902344 2.7059375 1.99476563 1.5 2.0625 C0.33984375 2.12050781 -0.8203125 2.17851562 -2.015625 2.23828125 C-5.40014039 2.7737541 -6.85454488 3.34884142 -9.25 5.75 C-9.58 6.74 -9.91 7.73 -10.25 8.75 C-9.59 9.08 -8.93 9.41 -8.25 9.75 C-8.25 10.74 -8.25 11.73 -8.25 12.75 C38.775 13.245 38.775 13.245 86.75 13.75 C86.75 13.09 86.75 12.43 86.75 11.75 C87.41 11.42 88.07 11.09 88.75 10.75 C89.80352843 8.44034152 90.80719096 6.1070226 91.75 3.75 C92.08 3.75 92.41 3.75 92.75 3.75 C93.15433666 7.87423397 93.27123757 10.0238458 90.8127594 13.44883728 C86.61579709 16.60216797 83.55175748 16.44962279 78.43334961 16.38110352 C77.03737801 16.39183647 77.03737801 16.39183647 75.61320496 16.40278625 C72.54241591 16.41967088 69.47308709 16.40027316 66.40234375 16.37890625 C64.26672749 16.3797349 62.13111129 16.38219412 59.99549866 16.38621521 C55.5224383 16.38907297 51.04987875 16.37437246 46.5769043 16.34692383 C40.84098634 16.31282085 35.10596271 16.31886654 29.37000179 16.3375864 C24.96135492 16.34814963 20.5529165 16.33922501 16.14428902 16.32420158 C14.02916648 16.31901575 11.9140222 16.31950643 9.79890251 16.32574654 C6.84454311 16.33119125 3.89146886 16.3108478 0.93725586 16.28344727 C0.06182129 16.28997314 -0.81361328 16.29649902 -1.71557617 16.30322266 C-7.63785829 16.20973027 -7.63785829 16.20973027 -10.79100037 13.84165955 C-12.36990896 11.57809542 -12.79268012 10.48152765 -12.75 7.75 C-12.76546875 6.76 -12.76546875 6.76 -12.78125 5.75 C-10.9886918 -0.99845438 -5.89085347 -0.6556957 0 0 Z " fill="#174161" transform="translate(137.25,304.25)"/>
<path d="M0 0 C0.99 1.98 0.99 1.98 2 4 C-1.12104269 6.75177329 -3.05235286 7.37332282 -7.1885376 7.36076355 C-8.23739136 7.36488754 -9.28624512 7.36901154 -10.36688232 7.3732605 C-11.5119928 7.36247467 -12.65710327 7.35168884 -13.83691406 7.34057617 C-15.65195435 7.34123329 -15.65195435 7.34123329 -17.50366211 7.34190369 C-20.81758939 7.34017235 -24.13095529 7.32513249 -27.44478321 7.30418181 C-30.90944068 7.2854216 -34.37410572 7.2836651 -37.83880615 7.28010559 C-44.39778215 7.27078317 -50.95660804 7.24616682 -57.51551795 7.21605712 C-64.98340389 7.18251917 -72.45129701 7.16602864 -79.91923952 7.15097082 C-95.27957993 7.11961736 -110.6397706 7.06685314 -126 7 C-126 6.67 -126 6.34 -126 6 C-122.535 5.505 -122.535 5.505 -119 5 C-119 4.67 -119 4.34 -119 4 C-80.39 4 -41.78 4 -2 4 C-1.34 2.68 -0.68 1.36 0 0 Z " fill="#315970" transform="translate(263,84)"/>
<path d="M0 0 C2.125 0 2.125 0 5 1 C12.97755337 8.99843701 17.11904387 19.41238086 17.25 30.5 C17.27578125 31.8096875 17.3015625 33.119375 17.328125 34.46875 C16.97731188 38.24416735 16.60447687 39.36259258 14 42 C11.75677204 42.49219131 11.75677204 42.49219131 9.08357239 42.48101807 C8.06974991 42.48651672 7.05592743 42.49201538 6.01138306 42.49768066 C4.90008026 42.48329956 3.78877747 42.46891846 2.64379883 42.45410156 C1.47293228 42.45468567 0.30206573 42.45526978 -0.90428162 42.45587158 C-4.11502352 42.45356083 -7.32506982 42.43348904 -10.5356729 42.40557575 C-13.89088279 42.38058546 -17.24610606 42.378222 -20.60139465 42.37347412 C-26.95505133 42.36103727 -33.308433 42.32820639 -39.66196853 42.28807616 C-46.89523524 42.24338025 -54.12851502 42.22137696 -61.36188543 42.20129442 C-76.24141024 42.15947414 -91.12067763 42.08910862 -106 42 C-106 41.67 -106 41.34 -106 41 C-66.4 40.67 -26.8 40.34 14 40 C14 39.01 14 38.02 14 37 C13.505 37.99 13.505 37.99 13 39 C12.34 39 11.68 39 11 39 C11.30679688 38.43796875 11.61359375 37.8759375 11.9296875 37.296875 C13.02957585 34.93653066 13.60095851 32.79534438 14.125 30.25 C14.29257812 29.45078125 14.46015625 28.6515625 14.6328125 27.828125 C14.75398438 27.22484375 14.87515625 26.6215625 15 26 C14.34 26 13.68 26 13 26 C11.68758632 21.81668141 11 18.35419932 11 14 C10.01 12.515 10.01 12.515 9 11 C9 10.01 9 9.02 9 8 C8.34 8 7.68 8 7 8 C7 7.34 7 6.68 7 6 C6.360625 5.896875 5.72125 5.79375 5.0625 5.6875 C4.381875 5.460625 3.70125 5.23375 3 5 C2.505 3.515 2.505 3.515 2 2 C1.01 1.01 1.01 1.01 0 0 Z " fill="#0B3A59" transform="translate(247,200)"/>
<path d="M0 0 C0.33 0 0.66 0 1 0 C1.17728078 25.06037715 1.34295074 50.12080773 1.49477577 75.18135262 C1.56554087 86.81723467 1.64011386 98.45306911 1.72363281 110.08886719 C1.79641312 120.22990844 1.86206755 130.37096643 1.91914403 140.51210868 C1.94961855 145.88239384 1.98367551 151.25260266 2.02626419 156.62280655 C2.0662353 161.6771388 2.09667994 166.73143882 2.11981392 171.78587532 C2.12998508 173.6410441 2.14363891 175.49619755 2.16103554 177.35131264 C2.18427193 179.8847421 2.19496075 182.4179288 2.20254517 184.95144653 C2.2122618 185.68492251 2.22197843 186.41839848 2.2319895 187.174101 C2.2288393 191.49633079 1.58889726 194.98171068 0 199 C-0.66 199 -1.32 199 -2 199 C-1.83923477 197.73125031 -1.67846954 196.46250061 -1.51283264 195.15530396 C-0.7009808 186.96473278 -0.82160771 178.73720662 -0.79467773 170.51513672 C-0.78508532 168.65161427 -0.77507446 166.78809394 -0.76467896 164.92457581 C-0.73777148 159.89021817 -0.71668576 154.8558513 -0.69667697 149.82146215 C-0.67472953 144.55105269 -0.6473839 139.28067124 -0.62062073 134.01028442 C-0.5708118 124.04103803 -0.52582945 114.07177598 -0.48259836 104.10249913 C-0.43312481 92.74817211 -0.37824437 81.39387321 -0.32291877 70.03957343 C-0.20927999 46.69307522 -0.10240189 23.34655001 0 0 Z " fill="#0E4262" transform="translate(321,151)"/>
<path d="M0 0 C0.66 0.33 1.32 0.66 2 1 C2.96070434 3.88211302 3.10581883 5.69850044 3.0625 8.6875 C3.05347656 9.49574219 3.04445312 10.30398437 3.03515625 11.13671875 C3.02355469 11.75160156 3.01195312 12.36648437 3 13 C4.18758911 12.9685791 4.18758911 12.9685791 5.39916992 12.93652344 C8.99515018 12.85324533 12.59092736 12.80130109 16.1875 12.75 C17.43337891 12.71648438 18.67925781 12.68296875 19.96289062 12.6484375 C21.7659668 12.62910156 21.7659668 12.62910156 23.60546875 12.609375 C25.26292114 12.5779541 25.26292114 12.5779541 26.95385742 12.54589844 C30.89655858 13.13365384 32.44770881 13.91577134 35 17 C35 19.97 35 22.94 35 26 C46.22 26 57.44 26 69 26 C69 26.33 69 26.66 69 27 C57.78 27.33 46.56 27.66 35 28 C34.34 25.69 33.68 23.38 33 21 C32.34 20.67 31.68 20.34 31 20 C30.67 19.34 30.34 18.68 30 18 C26.80838178 16.84483835 23.72581049 16.88443718 20.359375 16.90234375 C18.75449219 16.90717773 18.75449219 16.90717773 17.1171875 16.91210938 C16.00601563 16.92048828 14.89484375 16.92886719 13.75 16.9375 C12.62335938 16.94201172 11.49671875 16.94652344 10.3359375 16.95117188 C7.55723783 16.96294603 4.77864591 16.9793916 2 17 C0.46045752 13.32304197 -0.35904171 10.23457599 -0.6875 6.25 C-0.77386719 5.28578125 -0.86023438 4.3215625 -0.94921875 3.328125 C-0.96597656 2.55984375 -0.98273438 1.7915625 -1 1 C-0.67 0.67 -0.34 0.34 0 0 Z " fill="#0F3D5B" transform="translate(231,28)"/>
<path d="M0 0 C1.02226842 0.00368717 2.04453684 0.00737434 3.09778309 0.01117325 C4.27147449 0.00567459 5.4451659 0.00017593 6.65442371 -0.00548935 C7.94339054 0.00889175 9.23235737 0.02327286 10.5603838 0.03808975 C11.93026668 0.03921794 13.30015198 0.03858493 14.67003345 0.03631973 C18.3910228 0.03517052 22.11149797 0.05871273 25.83236766 0.08661556 C29.72009895 0.11159501 33.6078416 0.11396847 37.49564075 0.11871719 C44.85863432 0.13115719 52.22139076 0.16399249 59.58427984 0.20411515 C67.96626041 0.24880114 76.34825223 0.27081189 84.73032224 0.29089689 C101.9736994 0.33272436 119.21684564 0.40309613 136.460042 0.49219131 C136.460042 0.82219131 136.460042 1.15219131 136.460042 1.49219131 C90.920042 1.49219131 45.380042 1.49219131 -1.539958 1.49219131 C-1.869958 5.45219131 -2.199958 9.41219131 -2.539958 13.49219131 C-5.539958 10.49219131 -5.539958 10.49219131 -5.914958 7.55469131 C-5.40079683 3.35570843 -4.37546372 0.84787435 0 0 Z " fill="#023A57" transform="translate(130.5399580001831,270.50780868530273)"/>
<path d="M0 0 C1.25039062 0.01611328 2.50078125 0.03222656 3.7890625 0.04882812 C5.09101563 0.09072266 6.39296875 0.13261719 7.734375 0.17578125 C9.71050781 0.20961914 9.71050781 0.20961914 11.7265625 0.24414062 C14.98030904 0.30308531 18.23177171 0.38533072 21.484375 0.48828125 C21.484375 0.81828125 21.484375 1.14828125 21.484375 1.48828125 C12.904375 1.81828125 4.324375 2.14828125 -4.515625 2.48828125 C4.394375 2.48828125 13.304375 2.48828125 22.484375 2.48828125 C21.164375 3.47828125 19.844375 4.46828125 18.484375 5.48828125 C18.484375 4.82828125 18.484375 4.16828125 18.484375 3.48828125 C15.81696577 3.60346483 13.15090259 3.73017671 10.484375 3.86328125 C9.74058594 3.89421875 8.99679688 3.92515625 8.23046875 3.95703125 C5.9721268 4.07485779 3.7341521 4.25997199 1.484375 4.48828125 C0.74445313 4.55563477 0.00453125 4.62298828 -0.7578125 4.69238281 C-3.2003824 4.99390248 -3.2003824 4.99390248 -6.515625 6.48828125 C-7.505625 9.12828125 -8.495625 11.76828125 -9.515625 14.48828125 C-20.735625 14.48828125 -31.955625 14.48828125 -43.515625 14.48828125 C-43.515625 13.82828125 -43.515625 13.16828125 -43.515625 12.48828125 C-32.625625 12.48828125 -21.735625 12.48828125 -10.515625 12.48828125 C-10.515625 10.17828125 -10.515625 7.86828125 -10.515625 5.48828125 C-7.77525262 0.48680762 -5.55206425 -0.12618328 0 0 Z " fill="#28506B" transform="translate(142.515625,40.51171875)"/>
<path d="M0 0 C0.495 1.485 0.495 1.485 1 3 C0.06640625 4.68359375 0.06640625 4.68359375 -1.4375 6.4375 C-2.14712891 7.30181641 -2.14712891 7.30181641 -2.87109375 8.18359375 C-8.71282314 13.16782157 -14.35855355 14.59020168 -21.89453125 14.36230469 C-22.7442601 14.35313522 -23.59398895 14.34396576 -24.46946716 14.33451843 C-27.25115082 14.29971616 -30.03135196 14.23602961 -32.8125 14.171875 C-34.75160079 14.14194687 -36.69073042 14.11383689 -38.62988281 14.08746338 C-43.71342568 14.01346931 -48.79620156 13.91490041 -53.87921143 13.81109619 C-59.07418392 13.70939336 -64.2695043 13.63109111 -69.46484375 13.55078125 C-79.64370336 13.39000518 -89.82190604 13.20324831 -100 13 C-100 12.67 -100 12.34 -100 12 C-91.33168575 11.86792596 -82.66334936 11.73743821 -73.99498272 11.60884857 C-69.96775349 11.54906008 -65.94053317 11.48877195 -61.91333008 11.42724609 C-27.68410074 10.90498483 -27.68410074 10.90498483 -12 11 C-12 10.34 -12 9.68 -12 9 C-9.04518508 6.25624329 -8.22528092 6 -4 6 C-3.71125 5.195625 -3.4225 4.39125 -3.125 3.5625 C-2 1 -2 1 0 0 Z " fill="#0C4266" transform="translate(317,351)"/>
<path d="M0 0 C3.4773239 2.68702302 3.99964742 5.84175474 5 10 C6.09287962 21.64043871 4.66753844 31.23138813 -2.1875 40.8125 C-5.72688666 45.04603361 -9.87407152 48.82076978 -15 51 C-17.26953125 50.6484375 -17.26953125 50.6484375 -19 50 C-16.64046906 47.64046906 -15.22104383 47.50858587 -12 47 C-11.67 45.68 -11.34 44.36 -11 43 C-10.0409375 42.8453125 -10.0409375 42.8453125 -9.0625 42.6875 C-8.381875 42.460625 -7.70125 42.23375 -7 42 C-6.67 41.01 -6.34 40.02 -6 39 C-5.34 39 -4.68 39 -4 39 C-4 38.34 -4 37.68 -4 37 C-3.34 37 -2.68 37 -2 37 C-1.896875 36.34 -1.79375 35.68 -1.6875 35 C-1 32 -1 32 0.5 28.4375 C2.5128019 23.143831 3.44662586 17.65996767 3 12 C1.59212055 9.50114385 0.41713164 8.65072405 -2 7 C-1.34 4.69 -0.68 2.38 0 0 Z " fill="#103551" transform="translate(229,128)"/>
<path d="M0 0 C9.57 0 19.14 0 29 0 C29 0.99 29 1.98 29 3 C29.99 3 30.98 3 32 3 C33.12758089 6.38274266 32.81750262 7.76778223 32.0625 11.1875 C31.86785156 12.08855469 31.67320312 12.98960938 31.47265625 13.91796875 C31.31667969 14.60503906 31.16070312 15.29210938 31 16 C30.67 16 30.34 16 30 16 C30 12.37 30 8.74 30 5 C29.34 5 28.68 5 28 5 C28 4.34 28 3.68 28 3 C18.76 3.33 9.52 3.66 0 4 C-2.10818511 8.21637021 -1.60851985 13.30223824 -2 18 C7.9 18 17.8 18 28 18 C28 18.33 28 18.66 28 19 C23.76461684 19.19220663 19.52894629 19.37093557 15.29248047 19.53710938 C13.85091858 19.59556424 12.40950193 19.65772144 10.96826172 19.72363281 C8.89838095 19.81765355 6.82834562 19.89841315 4.7578125 19.9765625 C3.5114502 20.02893066 2.26508789 20.08129883 0.98095703 20.13525391 C-2 20 -2 20 -4 18 C-4.1953125 14.7421875 -4.1953125 14.7421875 -4.125 10.875 C-4.10695312 9.59367187 -4.08890625 8.31234375 -4.0703125 6.9921875 C-4.04710937 6.00476562 -4.02390625 5.01734375 -4 4 C-2.68 3.34 -1.36 2.68 0 2 C0 1.34 0 0.68 0 0 Z " fill="#0D3958" transform="translate(185,34)"/>
<path d="M0 0 C0.74900574 0.00141495 1.49801147 0.0028299 2.26971436 0.00428772 C4.65380912 0.00986966 7.03780878 0.0224188 9.421875 0.03515625 C11.04166531 0.04017359 12.66145709 0.04473609 14.28125 0.04882812 C18.24482812 0.05983317 22.20833545 0.07708534 26.171875 0.09765625 C26.171875 0.75765625 26.171875 1.41765625 26.171875 2.09765625 C25.42091553 2.11747559 24.66995605 2.13729492 23.89624023 2.15771484 C20.46695543 2.25345026 17.03823958 2.36293258 13.609375 2.47265625 C12.42794922 2.50359375 11.24652344 2.53453125 10.02929688 2.56640625 C4.02782444 2.76813642 -1.131904 3.23165282 -6.828125 5.09765625 C-8.3478857 5.15844668 -9.86985786 5.18536234 -11.390625 5.16015625 C-14.56134848 5.41987421 -15.513702 5.74443212 -17.6640625 8.16015625 C-18.71060281 9.79378015 -19.70491075 11.46238465 -20.63671875 13.1640625 C-21.02988281 13.80214844 -21.42304688 14.44023437 -21.828125 15.09765625 C-22.488125 15.09765625 -23.148125 15.09765625 -23.828125 15.09765625 C-23.828125 15.75765625 -23.828125 16.41765625 -23.828125 17.09765625 C-24.488125 17.09765625 -25.148125 17.09765625 -25.828125 17.09765625 C-23.75144587 9.6562227 -20.23582819 6.06803556 -13.828125 2.11328125 C-9.34752188 -0.16202502 -4.93610815 -0.03523434 0 0 Z " fill="#254D68" transform="translate(189.828125,15.90234375)"/>
<path d="M0 0 C0.33 0.99 0.66 1.98 1 3 C2.93330603 4.09166275 2.93330603 4.09166275 5 5 C5.66 5.66 6.32 6.32 7 7 C10.09926819 6.67801034 10.09926819 6.67801034 13 6 C13 6.33 13 6.66 13 7 C14.38276123 6.99666908 14.38276123 6.99666908 15.79345703 6.99327087 C24.50292125 6.97319078 33.21237764 6.95798658 41.92185974 6.94818783 C46.3989257 6.94298077 50.87597244 6.93592285 55.35302734 6.92456055 C59.67779732 6.91365406 64.00254887 6.90770677 68.32733154 6.90512276 C69.97304575 6.90328246 71.61875901 6.89968891 73.26446533 6.89426994 C75.57867573 6.88695636 77.89281106 6.88601338 80.20703125 6.88647461 C81.5216333 6.884254 82.83623535 6.88203339 84.19067383 6.87974548 C88.20152429 7.00636181 92.02900633 7.44282521 96 8 C96 8.33 96 8.66 96 9 C84.07387705 9.11577894 72.14788748 9.20465723 60.22131729 9.25906086 C54.68347595 9.28517016 49.1460187 9.32059311 43.60839844 9.37719727 C38.26564502 9.43146864 32.92326136 9.46141049 27.5802536 9.47438622 C25.54042488 9.4836348 23.50061671 9.50169506 21.46094513 9.52865028 C18.60665438 9.56487563 15.75389718 9.56994806 12.89941406 9.56762695 C11.6305838 9.59459152 11.6305838 9.59459152 10.33612061 9.62210083 C6.22292021 9.58583695 4.60508522 9.54099872 1.44378662 6.71452332 C0 4 0 4 0 0 Z " fill="#DBE8EC" transform="translate(96,336)"/>
<path d="M0 0 C1.16781006 0.00523682 2.33562012 0.01047363 3.53881836 0.01586914 C4.79887695 0.0190918 6.05893555 0.02231445 7.35717773 0.02563477 C8.6976732 0.03399136 10.03816799 0.04245632 11.37866211 0.05102539 C12.72306153 0.05603879 14.06746271 0.06060197 15.41186523 0.06469727 C18.71334151 0.07653051 22.01473014 0.09301568 25.31616211 0.11352539 C25.31616211 0.44352539 25.31616211 0.77352539 25.31616211 1.11352539 C16.90116211 1.60852539 16.90116211 1.60852539 8.31616211 2.11352539 C8.31616211 2.44352539 8.31616211 2.77352539 8.31616211 3.11352539 C3.86116211 3.60852539 3.86116211 3.60852539 -0.68383789 4.11352539 C-0.35383789 6.42352539 -0.02383789 8.73352539 0.31616211 11.11352539 C3.77447797 11.14247086 7.23276283 11.16030539 10.69116211 11.17602539 C11.67600586 11.1844043 12.66084961 11.1927832 13.67553711 11.20141602 C14.61655273 11.20463867 15.55756836 11.20786133 16.52709961 11.21118164 C17.39641113 11.21641846 18.26572266 11.22165527 19.16137695 11.22705078 C21.36666205 11.2547489 21.36666205 11.2547489 23.31616211 10.11352539 C23.72345438 7.79195942 24.06054888 5.45664669 24.31616211 3.11352539 C24.64616211 3.11352539 24.97616211 3.11352539 25.31616211 3.11352539 C25.30456055 3.74000977 25.29295898 4.36649414 25.28100586 5.01196289 C25.27198242 5.82922852 25.26295898 6.64649414 25.25366211 7.48852539 C25.24206055 8.30063477 25.23045898 9.11274414 25.21850586 9.94946289 C25.17149876 12.16289681 25.17149876 12.16289681 26.31616211 14.11352539 C16.41616211 14.11352539 6.51616211 14.11352539 -3.68383789 14.11352539 C-3.68383789 0.15582504 -3.68383789 0.15582504 0 0 Z " fill="#C5D6DE" transform="translate(187.683837890625,36.886474609375)"/>
<path d="M0 0 C4.18108567 0.11869627 8.36195788 0.24297273 12.54272461 0.37231445 C13.96357775 0.41549804 15.38447726 0.45718408 16.80541992 0.49731445 C18.8534947 0.55542095 20.90133965 0.61899638 22.94921875 0.68359375 C24.17987061 0.72025146 25.41052246 0.75690918 26.6784668 0.79467773 C29.55826984 0.97269423 32.19587088 1.34609105 35 2 C34.9071875 3.7634375 34.9071875 3.7634375 34.8125 5.5625 C34.78855827 10.03960301 36.0120944 13.0241888 38 17 C36.125 16.75 36.125 16.75 34 16 C32 12 32 12 31 3 C20.77 3 10.54 3 0 3 C0 2.01 0 1.02 0 0 Z " fill="#1A4060" transform="translate(101,71)"/>
<path d="M0 0 C7.77268561 1.90650779 7.77268561 1.90650779 10 5 C10.33 5.99 10.66 6.98 11 8 C13.5342007 9.04004769 15.95185202 9.89978397 18.5625 10.6875 C19.62887695 11.02491211 19.62887695 11.02491211 20.71679688 11.36914062 C22.47448819 11.92358017 24.23684098 12.46320189 26 13 C26 13.66 26 14.32 26 15 C20.25517781 16.23103333 17.00635911 16.17399651 11.8828125 13.23046875 C6.17837427 9.50246451 3.04456202 5.97202549 0 0 Z " fill="#1B435E" transform="translate(78,350)"/>
<path d="M0 0 C0.66 0.66 1.32 1.32 2 2 C1.18860062 2.83016632 0.37720123 3.66033264 -0.45878601 4.51565552 C-3.38502149 8.04914211 -3.71480665 11.26505535 -3.65942383 15.74951172 C-3.66990753 16.50141281 -3.68039124 17.2533139 -3.69119263 18.02799988 C-3.71983045 20.4956547 -3.71366495 22.96189704 -3.70703125 25.4296875 C-3.72015322 27.1474889 -3.73545899 28.86527488 -3.75285339 30.58303833 C-3.79265824 35.09086264 -3.8028909 39.5982829 -3.80688477 44.10626221 C-3.81622476 48.7115908 -3.85364371 53.31668283 -3.88867188 57.921875 C-3.95320164 66.94790566 -3.98647951 75.97375884 -4 85 C-4.33 85 -4.66 85 -5 85 C-5.04635541 74.91643632 -5.08188554 64.83289802 -5.10362434 54.74924946 C-5.11405826 50.06692552 -5.12821035 45.38467453 -5.15087891 40.70239258 C-5.17262119 36.18311535 -5.18457158 31.66390825 -5.18975449 27.14458275 C-5.19344774 25.42102136 -5.20065974 23.69746377 -5.21146011 21.97393227 C-5.22599345 19.55846508 -5.22797717 17.14328713 -5.22705078 14.7277832 C-5.23424133 14.01640198 -5.24143188 13.30502075 -5.24884033 12.57208252 C-5.23239108 8.60428754 -4.74692155 5.57428596 -3 2 C-2.01 2 -1.02 2 0 2 C0 1.34 0 0.68 0 0 Z " fill="#033861" transform="translate(99,72)"/>
<path d="M0 0 C-2.22319856 4.02954738 -4.80819733 4.82082561 -8.93359375 6.21875 C-13.35004078 7.88848423 -16.39998986 10.0999848 -19 14 C-19.66 14 -20.32 14 -21 14 C-21 14.66 -21 15.32 -21 16 C-22.65 16.33 -24.3 16.66 -26 17 C-21.36001462 8.93046021 -14.53157568 3.22242211 -6.04296875 -0.50390625 C-3.67326457 -1.07934111 -2.28503107 -0.77537009 0 0 Z " fill="#154466" transform="translate(194,111)"/>
<path d="M0 0 C3.25169198 0.99357255 4.77014231 1.70118501 6.875 4.4375 C11.33892764 9.82047156 17.83953673 10.52951464 24.4375 11.1875 C25.53481445 11.3102832 25.53481445 11.3102832 26.65429688 11.43554688 C28.43514466 11.63341885 30.21744927 11.81810707 32 12 C32 12.99 32 13.98 32 15 C20.85401388 15.8893074 11.95142144 13.59043925 3.25 6.375 C1.328125 4.6484375 1.328125 4.6484375 0 3 C0 2.01 0 1.02 0 0 Z " fill="#2C4F6B" transform="translate(172,167)"/>
<path d="M0 0 C-0.61875 0.28875 -1.2375 0.5775 -1.875 0.875 C-4.13325765 1.93720042 -4.13325765 1.93720042 -6 4 C-6.825 4.144375 -7.65 4.28875 -8.5 4.4375 C-11.34936529 4.7765556 -11.34936529 4.7765556 -13 8 C-13.7425 8.391875 -14.485 8.78375 -15.25 9.1875 C-22.53189997 13.98693407 -25.76167926 22.20510405 -29 30 C-30.16480606 27.15950804 -30.03340859 26.08832016 -28.92578125 23.16015625 C-28.39339844 22.13792969 -27.86101562 21.11570313 -27.3125 20.0625 C-26.53326172 18.53302734 -26.53326172 18.53302734 -25.73828125 16.97265625 C-22.69268916 11.76435158 -19.41532996 8.30319449 -14.5 4.8125 C-13.09234375 3.80123047 -13.09234375 3.80123047 -11.65625 2.76953125 C-7.24226031 -0.17096482 -5.2552545 -1.45979292 0 0 Z " fill="#183D5A" transform="translate(166,192)"/>
<path d="M0 0 C2.125 0 2.125 0 5 1 C11.90117116 7.91923706 16.46077643 17.29397566 17 27 C15.68 26.67 14.36 26.34 13 26 C11.68758632 21.81668141 11 18.35419932 11 14 C10.34 13.01 9.68 12.02 9 11 C9 10.01 9 9.02 9 8 C8.34 8 7.68 8 7 8 C7 7.34 7 6.68 7 6 C6.360625 5.896875 5.72125 5.79375 5.0625 5.6875 C4.381875 5.460625 3.70125 5.23375 3 5 C2.67 4.01 2.34 3.02 2 2 C1.34 1.34 0.68 0.68 0 0 Z " fill="#16415F" transform="translate(247,200)"/>
<path d="M0 0 C2.08534518 0.802934 3.7560807 1.80113383 5.6484375 2.9765625 C11.26776257 5.42218238 17.95058418 5.44204417 24 6 C24 6.33 24 6.66 24 7 C20.33566464 7.3651295 16.66945306 7.69083337 13 8 C11.88625 8.103125 10.7725 8.20625 9.625 8.3125 C6.1298431 7.89640989 4.61824846 6.27374209 2 4 C-0.86238882 3.04786648 -3.49559591 2.86471094 -6.5 2.875 C-7.2528125 2.87242187 -8.005625 2.86984375 -8.78125 2.8671875 C-10.973535 2.99841583 -12.89319137 3.39668662 -15 4 C-15.33 3.01 -15.66 2.02 -16 1 C-11.35127443 -1.32436279 -5.0555457 -0.42129547 0 0 Z " fill="#0F3856" transform="translate(182,189)"/>
<path d="M0 0 C0.59554687 0.54785156 1.19109375 1.09570312 1.8046875 1.66015625 C2.24039063 2.08167969 2.67609375 2.50320312 3.125 2.9375 C0.125 2.9375 0.125 2.9375 -2.875 0.9375 C-4.53049531 0.55250109 -6.1972433 0.20956865 -7.875 -0.0625 C-7.875 -0.3925 -7.875 -0.7225 -7.875 -1.0625 C-18.765 -1.0625 -29.655 -1.0625 -40.875 -1.0625 C-40.875 -1.3925 -40.875 -1.7225 -40.875 -2.0625 C-34.93748504 -3.39678834 -28.99992325 -3.4606179 -22.9375 -3.6875 C-21.77025391 -3.7390625 -20.60300781 -3.790625 -19.40039062 -3.84375 C-18.26923828 -3.88757813 -17.13808594 -3.93140625 -15.97265625 -3.9765625 C-14.94664307 -4.0173291 -13.92062988 -4.0580957 -12.86352539 -4.10009766 C-7.6265749 -4.0342133 -3.88231581 -3.64937686 0 0 Z " fill="#0E4365" transform="translate(225.875,21.0625)"/>
<path d="M0 0 C0.33 0.99 0.66 1.98 1 3 C-1.57956539 7.65185224 -5.84179199 11.22210683 -10.6328125 13.421875 C-15.39470471 14.58484537 -20.21297628 13.7340103 -25 13 C-25 12.67 -25 12.34 -25 12 C-18.565 11.505 -18.565 11.505 -12 11 C-12 10.34 -12 9.68 -12 9 C-9.04518508 6.25624329 -8.22528092 6 -4 6 C-3.71125 5.195625 -3.4225 4.39125 -3.125 3.5625 C-2 1 -2 1 0 0 Z " fill="#194260" transform="translate(317,351)"/>
<path d="M0 0 C0.99 0.33 1.98 0.66 3 1 C2.195625 1.61875 1.39125 2.2375 0.5625 2.875 C-2.03874519 4.74164041 -2.03874519 4.74164041 -3 7 C-3.25797575 10.95562822 -3.09440189 13.59659693 -1 17 C-1.66 17.99 -2.32 18.98 -3 20 C-5.475 19.01 -5.475 19.01 -8 18 C-8 13.71 -8 9.42 -8 5 C-7.01 5 -6.02 5 -5 5 C-4.67 4.34 -4.34 3.68 -4 3 C-3.34 3 -2.68 3 -2 3 C-2 2.34 -2 1.68 -2 1 C-1.34 0.67 -0.68 0.34 0 0 Z " fill="#DDE4E5" transform="translate(129,268)"/>
<path d="M0 0 C6.58938396 1.48261139 11.32508582 5.54801577 15.3984375 10.8046875 C17.77410899 14.59565264 18.43160007 17.57609931 18 22 C17.67 21.01 17.34 20.02 17 19 C16.34 19 15.68 19 15 19 C15 17.35 15 15.7 15 14 C13.68 14 12.36 14 11 14 C10.9175 12.88625 10.835 11.7725 10.75 10.625 C10.41900719 6.98536368 10.41900719 6.98536368 8.125 5.625 C7.42375 5.41875 6.7225 5.2125 6 5 C5.01 4.67 4.02 4.34 3 4 C3 4.66 3 5.32 3 6 C2.01 5.67 1.02 5.34 0 5 C0 3.33333333 0 1.66666667 0 0 Z " fill="#153E5C" transform="translate(304,55)"/>
<path d="M0 0 C0.66 0.66 1.32 1.32 2 2 C1.11248047 2.07347656 1.11248047 2.07347656 0.20703125 2.1484375 C-6.13120946 2.696027 -6.13120946 2.696027 -12 5 C-12.33 5.99 -12.66 6.98 -13 8 C-13.66 8 -14.32 8 -15 8 C-15.33 9.32 -15.66 10.64 -16 12 C-16.33 11.34 -16.66 10.68 -17 10 C-19.12576782 9.53348793 -19.12576782 9.53348793 -21.5625 9.375 C-22.38878906 9.30023438 -23.21507812 9.22546875 -24.06640625 9.1484375 C-24.70449219 9.09945312 -25.34257812 9.05046875 -26 9 C-23.75185082 6.43068665 -21.94899539 5.44634063 -18.6875 4.5 C-15.82003555 3.62588584 -13.58989334 2.77402286 -10.9375 1.3125 C-6.9726587 -0.45902484 -4.32113573 -0.36009464 0 0 Z " fill="#10415F" transform="translate(227,188)"/>
<path d="M0 0 C0.33 0 0.66 0 1 0 C1.12117187 0.61488281 1.24234375 1.22976562 1.3671875 1.86328125 C1.53476563 2.67152344 1.70234375 3.47976562 1.875 4.3125 C2.03742188 5.11300781 2.19984375 5.91351563 2.3671875 6.73828125 C2.94478999 9.25301118 2.94478999 9.25301118 5 12 C5.165 13.19625 5.33 14.3925 5.5 15.625 C5.665 16.73875 5.83 17.8525 6 19 C6.66 19.33 7.32 19.66 8 20 C8 22.31 8 24.62 8 27 C2.53224022 22.03766339 0.29054259 15.93594416 -0.25 8.61328125 C-0.25 5.7304591 -0.18073638 2.87672067 0 0 Z " fill="#134160" transform="translate(164,141)"/>
<path d="M0 0 C0.99 0.495 0.99 0.495 2 1 C2.33 1.99 2.66 2.98 3 4 C3.99 4.33 4.98 4.66 6 5 C6 5.66 6 6.32 6 7 C7.55847656 6.98259766 7.55847656 6.98259766 9.1484375 6.96484375 C16.83026349 6.9058662 24.36932205 6.97279335 32 8 C32 8.33 32 8.66 32 9 C21.77 9 11.54 9 1 9 C0.67 6.03 0.34 3.06 0 0 Z " fill="#DCEBEF" transform="translate(266,44)"/>
<path d="M0 0 C0.33 0.99 0.66 1.98 1 3 C-9.56 3 -20.12 3 -31 3 C-27.75176067 0.83450711 -26.63100986 0.71557554 -22.8515625 0.5859375 C-21.84609375 0.54726562 -20.840625 0.50859375 -19.8046875 0.46875 C-18.23074219 0.42234375 -18.23074219 0.42234375 -16.625 0.375 C-15.5834375 0.33632812 -14.541875 0.29765625 -13.46875 0.2578125 C-8.97673488 0.09697308 -4.4951715 -0.01929258 0 0 Z " fill="#22415B" transform="translate(297,71)"/>
<path d="M0 0 C1.98 0.99 1.98 0.99 4 2 C4 3.98 4 5.96 4 8 C5.19238281 7.97679687 6.38476562 7.95359375 7.61328125 7.9296875 C9.17968124 7.91092822 10.746088 7.89272819 12.3125 7.875 C13.09818359 7.85824219 13.88386719 7.84148438 14.69335938 7.82421875 C15.45068359 7.81777344 16.20800781 7.81132813 16.98828125 7.8046875 C17.68477783 7.79421387 18.38127441 7.78374023 19.09887695 7.77294922 C21 8 21 8 24 10 C16.41 10 8.82 10 1 10 C0.67 6.7 0.34 3.4 0 0 Z " fill="#E3EDF0" transform="translate(234,30)"/>
<path d="M0 0 C0.66 0 1.32 0 2 0 C2.33 0.99 2.66 1.98 3 3 C-0.47956579 9.38731482 -6.26556596 15.13693192 -13 18 C-15.26953125 17.6484375 -15.26953125 17.6484375 -17 17 C-14.64046906 14.64046906 -13.22104383 14.50858587 -10 14 C-9.67 12.68 -9.34 11.36 -9 10 C-8.360625 9.896875 -7.72125 9.79375 -7.0625 9.6875 C-6.381875 9.460625 -5.70125 9.23375 -5 9 C-4.67 8.01 -4.34 7.02 -4 6 C-3.34 6 -2.68 6 -2 6 C-2 5.34 -2 4.68 -2 4 C-1.34 4 -0.68 4 0 4 C0 2.68 0 1.36 0 0 Z " fill="#1E455E" transform="translate(227,161)"/>
<path d="M0 0 C0 0.99 0 1.98 0 3 C2.97 3.33 5.94 3.66 9 4 C9 4.66 9 5.32 9 6 C11.64 6 14.28 6 17 6 C17 6.33 17 6.66 17 7 C9.22813723 7.60691336 3.09771587 6.20749773 -4 3 C-4.33 2.67 -4.66 2.34 -5 2 C-6.84891946 1.76636119 -8.70488031 1.58696365 -10.5625 1.4375 C-11.57441406 1.35371094 -12.58632812 1.26992187 -13.62890625 1.18359375 C-14.80259766 1.09271484 -14.80259766 1.09271484 -16 1 C-16 0.67 -16 0.34 -16 0 C-10.47032059 -0.71033431 -5.50016964 -1.30267176 0 0 Z " fill="#BACBD5" transform="translate(187,188)"/>
<path d="M0 0 C6.5390874 0.16650454 12.10028709 1.38065214 17 6 C17 6.99 17 7.98 17 9 C16.01 9 15.02 9 14 9 C14 8.34 14 7.68 14 7 C13.443125 6.87625 12.88625 6.7525 12.3125 6.625 C9.7578959 5.93456646 7.40539865 5.10518316 5 4 C4.67 3.34 4.34 2.68 4 2 C1.98330173 0.86649466 1.98330173 0.86649466 0 0 Z " fill="#123E5B" transform="translate(204,111)"/>
<path d="M0 0 C2.01822917 0.06510417 4.03645833 0.13020833 6.0546875 0.1953125 C6.0546875 0.5253125 6.0546875 0.8553125 6.0546875 1.1953125 C12.6546875 1.5253125 19.2546875 1.8553125 26.0546875 2.1953125 C26.0546875 2.5253125 26.0546875 2.8553125 26.0546875 3.1953125 C16.8146875 3.1953125 7.5746875 3.1953125 -1.9453125 3.1953125 C-1.9453125 4.1853125 -1.9453125 5.1753125 -1.9453125 6.1953125 C-3.2653125 6.5253125 -4.5853125 6.8553125 -5.9453125 7.1953125 C-3.42094902 0.34346878 -3.42094902 0.34346878 0 0 Z " fill="#D8E3E6" transform="translate(101.9453125,73.8046875)"/>
<path d="M0 0 C0.99 0.33 1.98 0.66 3 1 C3 3.31 3 5.62 3 8 C1.35 8.33 -0.3 8.66 -2 9 C-6 3.25 -6 3.25 -6 1 C-3.03 1.495 -3.03 1.495 0 2 C0 1.34 0 0.68 0 0 Z " fill="#DEE2E4" transform="translate(261,203)"/>
<path d="M0 0 C0.28488281 0.5775 0.56976563 1.155 0.86328125 1.75 C1.58554817 3.17964173 2.3306229 4.59815875 3.10546875 6 C3.46253906 6.66 3.81960937 7.32 4.1875 8 C4.55230469 8.66 4.91710937 9.32 5.29296875 10 C6.15652913 12.44277852 5.86727187 13.59369655 5 16 C4.67 16.66 4.34 17.32 4 18 C2.35 17.67 0.7 17.34 -1 17 C0 14 0 14 2 12 C1.34 11.01 0.68 10.02 0 9 C-0.1953125 6.73828125 -0.1953125 6.73828125 -0.125 4.3125 C-0.10695313 3.50425781 -0.08890625 2.69601562 -0.0703125 1.86328125 C-0.04710938 1.24839844 -0.02390625 0.63351562 0 0 Z " fill="#E0E9ED" transform="translate(75,342)"/>
<path d="M0 0 C0.66 0 1.32 0 2 0 C1.34 3.96 0.68 7.92 0 12 C-7.59 12 -15.18 12 -23 12 C-22.67 11.34 -22.34 10.68 -22 10 C-14.93391809 9.86205046 -8.02639415 10.25194283 -1 11 C-1.01160156 10.37351562 -1.02320313 9.74703125 -1.03515625 9.1015625 C-1.04417969 8.28429688 -1.05320313 7.46703125 -1.0625 6.625 C-1.07410156 5.81289063 -1.08570313 5.00078125 -1.09765625 4.1640625 C-1 2 -1 2 0 0 Z " fill="#DEEDF1" transform="translate(163,28)"/>
<path d="M0 0 C0.66 0.33 1.32 0.66 2 1 C0.88266271 2.50571657 -0.24410035 4.00444292 -1.375 5.5 C-2.00148437 6.3353125 -2.62796875 7.170625 -3.2734375 8.03125 C-3.84320313 8.6809375 -4.41296875 9.330625 -5 10 C-5.66 10 -6.32 10 -7 10 C-7 10.66 -7 11.32 -7 12 C-8.65 12.33 -10.3 12.66 -12 13 C-8.83410746 7.59160025 -4.82485166 3.95825209 0 0 Z " fill="#153B58" transform="translate(180,115)"/>
<path d="M0 0 C0.33 0 0.66 0 1 0 C1 1.65 1 3.3 1 5 C-10.88 5.33 -22.76 5.66 -35 6 C-35 5.01 -35 4.02 -35 3 C-23.45 3.33 -11.9 3.66 0 4 C0 2.68 0 1.36 0 0 Z " fill="#D5E5EB" transform="translate(131,48)"/>
<path d="M0 0 C1.09570312 0.28746094 2.19140625 0.57492187 3.3203125 0.87109375 C4.16335937 1.09925781 5.00640625 1.32742188 5.875 1.5625 C5.875 2.2225 5.875 2.8825 5.875 3.5625 C0.04105611 4.66893764 -2.89079213 4.83387992 -8.125 1.5625 C-8.125 0.9025 -8.125 0.2425 -8.125 -0.4375 C-5.13816063 -1.93091969 -3.17339022 -0.84398676 0 0 Z " fill="#0D3D63" transform="translate(98.125,361.4375)"/>
<path d="M0 0 C5.4121059 1.92430432 8.31367367 5.06714412 11 10 C11 10.66 11 11.32 11 12 C11.66 12 12.32 12 13 12 C12.34 13.32 11.68 14.64 11 16 C10.70867187 15.48050781 10.41734375 14.96101563 10.1171875 14.42578125 C7.26003376 9.56502599 4.49218634 6.39409635 0 3 C-0.66 2.34 -1.32 1.68 -2 1 C-1.34 0.67 -0.68 0.34 0 0 Z " fill="#D5E4EA" transform="translate(310,55)"/>
<path d="M0 0 C0.33 0 0.66 0 1 0 C1.03738281 0.95261719 1.07476562 1.90523437 1.11328125 2.88671875 C1.17902344 4.14097656 1.24476563 5.39523438 1.3125 6.6875 C1.37050781 7.92886719 1.42851562 9.17023438 1.48828125 10.44921875 C2.00910976 14.06321199 2.90154617 16.05766393 5 19 C4.01 19.33 3.02 19.66 2 20 C2 19.34 2 18.68 2 18 C1.34 18 0.68 18 0 18 C-1.12536783 12.65450281 -2.53466037 5.06932075 0 0 Z " fill="#E0EFF2" transform="translate(133,224)"/>
<path d="M0 0 C0.33 0.66 0.66 1.32 1 2 C1.556875 2.12375 2.11375 2.2475 2.6875 2.375 C5.99167641 3.26802065 8.30911937 4.92068315 11 7 C11 7.99 11 8.98 11 10 C11.66 10 12.32 10 13 10 C12.67 10.66 12.34 11.32 12 12 C11.01 11.34 10.02 10.68 9 10 C9 9.34 9 8.68 9 8 C7.948125 7.5978125 7.948125 7.5978125 6.875 7.1875 C3.8350176 5.9318551 0.9272226 4.49764877 -2 3 C-1.34 2.67 -0.68 2.34 0 2 C0 1.34 0 0.68 0 0 Z " fill="#BED2DC" transform="translate(239,189)"/>
<path d="M0 0 C0.66 0 1.32 0 2 0 C2.6708712 1.6232687 3.33657029 3.24867578 4 4.875 C4.556875 6.23238281 4.556875 6.23238281 5.125 7.6171875 C6 10 6 10 6 12 C4.125 11.6875 4.125 11.6875 2 11 C-0.67927341 6.98108988 -0.15601248 4.75838077 0 0 Z " fill="#173D5E" transform="translate(134,230)"/>
<path d="M0 0 C0.33 0 0.66 0 1 0 C1.13277344 0.62648437 1.26554688 1.25296875 1.40234375 1.8984375 C1.57894531 2.71570313 1.75554687 3.53296875 1.9375 4.375 C2.11152344 5.18710938 2.28554687 5.99921875 2.46484375 6.8359375 C2.92330693 9.029463 2.92330693 9.029463 4 11 C4.039992 12.99960012 4.04346799 15.00047242 4 17 C3.01 16.67 2.02 16.34 1 16 C-0.34807677 12.70298938 -0.10070113 9.2645039 -0.0625 5.75 C-0.04896484 4.13351563 -0.04896484 4.13351563 -0.03515625 2.484375 C-0.02355469 1.66453125 -0.01195312 0.8446875 0 0 Z " fill="#0F3A56" transform="translate(164,141)"/>
<path d="M0 0 C2.4992935 2.1732987 3.60976535 3.68300548 4 7 C3.5625 9.75 3.5625 9.75 3 12 C1.35 10.35 -0.3 8.7 -2 7 C-1.34 4.69 -0.68 2.38 0 0 Z " fill="#1A4660" transform="translate(229,128)"/>
<path d="M0 0 C0.66 0.66 1.32 1.32 2 2 C1.11248047 2.07347656 1.11248047 2.07347656 0.20703125 2.1484375 C-3.37163781 2.48703914 -6.45536242 2.78214497 -9.8125 4.125 C-12.40395033 5.16158013 -13.39512363 4.77545586 -16 4 C-10.46248277 0.70105357 -6.47212508 -0.66953018 0 0 Z " fill="#2B4F67" transform="translate(227,188)"/>
<path d="M0 0 C6.31631828 0.40316925 10.64993984 2.71232131 16 6 C15.67 6.66 15.34 7.32 15 8 C14.278125 7.505 13.55625 7.01 12.8125 6.5 C10.13602941 4.78921569 10.13602941 4.78921569 7.3125 5 C6.549375 5 5.78625 5 5 5 C4.34 4.01 3.68 3.02 3 2 C2.01 1.34 1.02 0.68 0 0 Z " fill="#0F3856" transform="translate(230,190)"/>
<path d="M0 0 C0.33 0.99 0.66 1.98 1 3 C2.93330603 4.09166275 2.93330603 4.09166275 5 5 C5.66 5.66 6.32 6.32 7 7 C10.09926819 6.67801034 10.09926819 6.67801034 13 6 C12.67 6.66 12.34 7.32 12 8 C6.95372801 9.24088656 6.95372801 9.24088656 4 9 C1.5 6.8125 1.5 6.8125 0 4 C0 2.68 0 1.36 0 0 Z " fill="#D4E2E6" transform="translate(96,336)"/>
<path d="M0 0 C0.66 0.33 1.32 0.66 2 1 C0.02 3.97 -1.96 6.94 -4 10 C-4.66 9.67 -5.32 9.34 -6 9 C-5.45276317 5.62537285 -4.9451 3.91765 -3 1 C-2.01 0.67 -1.02 0.34 0 0 Z " fill="#D6E2EC" transform="translate(144,201)"/>
<path d="M0 0 C2.0625 0.4375 2.0625 0.4375 4 1 C3.071875 1.8971875 3.071875 1.8971875 2.125 2.8125 C-0.13676954 5.00811144 -0.13676954 5.00811144 -2 8 C-4.625 8.1875 -4.625 8.1875 -7 8 C-6.02133662 6.85373678 -5.04205413 5.70800212 -4.0625 4.5625 C-3.51722656 3.92441406 -2.97195312 3.28632812 -2.41015625 2.62890625 C-1.63204305 1.73008851 -0.84063472 0.84063472 0 0 Z " fill="#133C5C" transform="translate(88,57)"/>
<path d="M0 0 C0.66 0.33 1.32 0.66 2 1 C1.69106068 2.6256807 1.3777305 4.25052748 1.0625 5.875 C0.88847656 6.77992188 0.71445313 7.68484375 0.53515625 8.6171875 C0 11 0 11 -1 13 C-3.32579101 9.51131349 -3.41865457 8.10281481 -3 4 C-1.5 1.625 -1.5 1.625 0 0 Z " fill="#123B55" transform="translate(128,271)"/>
<path d="M0 0 C2.625 0.375 2.625 0.375 5 1 C3.87816502 3.24366996 2.60553445 5.07335866 1 7 C0.34 7 -0.32 7 -1 7 C-1.33 7.99 -1.66 8.98 -2 10 C-2.1953125 3.9453125 -2.1953125 3.9453125 -2 2 C-1.34 1.34 -0.68 0.68 0 0 Z " fill="#114265" transform="translate(80,66)"/>
<path d="M0 0 C0.99 0.99 1.98 1.98 3 3 C2.34 5.31 1.68 7.62 1 10 C-0.32 10.33 -1.64 10.66 -3 11 C-2.01 7.37 -1.02 3.74 0 0 Z " fill="#D3DEE8" transform="translate(233,153)"/>
<path d="M0 0 C6.14587738 0.2410148 6.14587738 0.2410148 8.578125 2.40234375 C9.78844931 3.88046971 10.90220903 5.43647953 12 7 C11.29875 6.71125 10.5975 6.4225 9.875 6.125 C6.96939693 4.9371807 6.96939693 4.9371807 3.75 4.0625 C2.8425 3.711875 1.935 3.36125 1 3 C0.67 2.01 0.34 1.02 0 0 Z " fill="#123B57" transform="translate(217,18)"/>
<path d="M0 0 C3.65316671 1.24976756 4.78065836 1.67098753 7 5 C6.01 6.485 6.01 6.485 5 8 C2.5 5.6875 2.5 5.6875 0 3 C0 2.01 0 1.02 0 0 Z " fill="#224B65" transform="translate(172,167)"/>
<path d="M0 0 C0.33 0.66 0.66 1.32 1 2 C2.98 1.67 4.96 1.34 7 1 C6.02433888 2.16959987 5.044375 3.33561177 4.0625 4.5 C3.51722656 5.1496875 2.97195312 5.799375 2.41015625 6.46875 C1.94480469 6.9740625 1.47945312 7.479375 1 8 C0.67 8 0.34 8 0 8 C0 5.36 0 2.72 0 0 Z " fill="#D4E0E5" transform="translate(169,117)"/>
<path d="M0 0 C-2.69277589 3.32637022 -6.03724749 4.58473125 -10 6 C-10.99 5.67 -11.98 5.34 -13 5 C-12.34 5 -11.68 5 -11 5 C-11 4.34 -11 3.68 -11 3 C-7.14243493 0.84694043 -4.44870215 -0.39253254 0 0 Z " fill="#CBDDE4" transform="translate(219,188)"/>
<path d="M0 0 C0.08121924 1.60332791 0.13929134 3.20784026 0.1875 4.8125 C0.23970703 6.15248047 0.23970703 6.15248047 0.29296875 7.51953125 C0 10 0 10 -3 13 C-3 9.04 -3 5.08 -3 1 C-1 0 -1 0 0 0 Z " fill="#C5D4DA" transform="translate(237,137)"/>
<path d="M0 0 C0.33 0 0.66 0 1 0 C1.33 4.95 1.66 9.9 2 15 C1.01 14.67 0.02 14.34 -1 14 C-0.67 9.38 -0.34 4.76 0 0 Z M-2 16 C0 17 0 17 0 17 Z " fill="#BED2DE" transform="translate(266,74)"/>
<path d="M0 0 C0.33 0 0.66 0 1 0 C1.36567164 6.460199 1.36567164 6.460199 -0.3125 8.9375 C-2 10 -2 10 -5 10 C-5 9.34 -5 8.68 -5 8 C-4.34 7.67 -3.68 7.34 -3 7 C-1.94647157 4.69034152 -0.94280904 2.3570226 0 0 Z " fill="#1C4059" transform="translate(229,308)"/>
<path d="M0 0 C1.875 0.1875 1.875 0.1875 4 1 C5.25 3.5625 5.25 3.5625 6 6 C6.66 6 7.32 6 8 6 C8 6.99 8 7.98 8 9 C6.68 8.34 5.36 7.68 4 7 C4 6.01 4 5.02 4 4 C3.34 4 2.68 4 2 4 C2 3.01 2 2.02 2 1 C1.34 0.67 0.68 0.34 0 0 Z " fill="#E1E9EC" transform="translate(248,195)"/>
<path d="M0 0 C0.99 0.33 1.98 0.66 3 1 C2.125 5.75 2.125 5.75 1 8 C0.01 7.67 -0.98 7.34 -2 7 C-1.34 4.69 -0.68 2.38 0 0 Z " fill="#1D4461" transform="translate(167,129)"/>
<path d="M0 0 C0.99 0.33 1.98 0.66 3 1 C1.02 5.455 1.02 5.455 -1 10 C-1.66 10 -2.32 10 -3 10 C-3 8.35 -3 6.7 -3 5 C-2.34 5 -1.68 5 -1 5 C-0.67 3.35 -0.34 1.7 0 0 Z " fill="#E4EEF4" transform="translate(166,126)"/>
<path d="M0 0 C-1.25 2 -1.25 2 -3 4 C-4.32 4 -5.64 4 -7 4 C-7 2.68 -7 1.36 -7 0 C-3.86650268 -1.04449911 -3.01031744 -0.93423645 0 0 Z " fill="#214A6C" transform="translate(194,111)"/>
<path d="M0 0 C2.97 0.33 5.94 0.66 9 1 C9.33 1.99 9.66 2.98 10 4 C3.375 3.375 3.375 3.375 0 0 Z " fill="#37576E" transform="translate(90,362)"/>
<path d="M0 0 C0.66 0.66 1.32 1.32 2 2 C1.67 2.66 1.34 3.32 1 4 C-1.9375 4.75 -1.9375 4.75 -5 5 C-5.66 4.34 -6.32 3.68 -7 3 C-3.375 0 -3.375 0 0 0 Z " fill="#D8E1E5" transform="translate(223,174)"/>
<path d="M0 0 C0.66 0 1.32 0 2 0 C1.4140625 6.15234375 1.4140625 6.15234375 1 8 C0.01 8.495 0.01 8.495 -1 9 C-1.625 6.1875 -1.625 6.1875 -2 3 C-1.34 2.01 -0.68 1.02 0 0 Z " fill="#193E58" transform="translate(134,43)"/>
<path d="M0 0 C0.33 0 0.66 0 1 0 C1.96891192 5.37305699 1.96891192 5.37305699 2 8 C0.5625 10 0.5625 10 -1 11 C-2.60080151 6.99799622 -1.29279692 3.95443764 0 0 Z " fill="#D5E0E3" transform="translate(300,333)"/>
<path d="M0 0 C-0.33 0.66 -0.66 1.32 -1 2 C-5.95 1.67 -10.9 1.34 -16 1 C-16 0.67 -16 0.34 -16 0 C-10.47032059 -0.71033431 -5.50016964 -1.30267176 0 0 Z " fill="#AEC0CB" transform="translate(187,188)"/>
<path d="M0 0 C2 2 2 2 2 5 C2.66 5.33 3.32 5.66 4 6 C2.68 6.99 1.36 7.98 0 9 C-0.66 8.01 -1.32 7.02 -2 6 C-1.34 5.67 -0.68 5.34 0 5 C-0.2784375 4.0409375 -0.2784375 4.0409375 -0.5625 3.0625 C-0.7790625 2.0415625 -0.7790625 2.0415625 -1 1 C-0.67 0.67 -0.34 0.34 0 0 Z " fill="#D9DFE1" transform="translate(227,167)"/>
<path d="M0 0 C0.33 0 0.66 0 1 0 C1 3.63 1 7.26 1 11 C-0.98 11.99 -0.98 11.99 -3 13 C-2.690625 12.154375 -2.38125 11.30875 -2.0625 10.4375 C-0.98461179 6.9502146 -0.43418696 3.61822465 0 0 Z " fill="#093652" transform="translate(303,332)"/>
<path d="M0 0 C0.66 0.33 1.32 0.66 2 1 C3.28317892 4.84953676 3.06643637 7.94738135 3 12 C2.67 12 2.34 12 2 12 C1.01 8.37 0.02 4.74 -1 1 C-0.67 0.67 -0.34 0.34 0 0 Z " fill="#10314C" transform="translate(231,28)"/>
<path d="M0 0 C0.66 0 1.32 0 2 0 C2.33 1.32 2.66 2.64 3 4 C3.99 3.67 4.98 3.34 6 3 C6.33 3.66 6.66 4.32 7 5 C3.65747276 5.07427838 1.1964086 5.06546953 -2 4 C-2 2 -2 2 0 0 Z " fill="#DEE2E2" transform="translate(219,183)"/>
<path d="M0 0 C0.66 1.32 1.32 2.64 2 4 C1.34 4.66 0.68 5.32 0 6 C-2.125 5.625 -2.125 5.625 -4 5 C-3.34 4.67 -2.68 4.34 -2 4 C-0.86649466 1.98330173 -0.86649466 1.98330173 0 0 Z " fill="#214862" transform="translate(263,84)"/>
<path d="M0 0 C2.25 -0.25 2.25 -0.25 5 0 C7.3125 1.875 7.3125 1.875 9 4 C9 4.66 9 5.32 9 6 C7.0625 5.1875 7.0625 5.1875 5 4 C4.67 3.01 4.34 2.02 4 1 C1.98491642 0.26676204 1.98491642 0.26676204 0 0 Z " fill="#C9DEEA" transform="translate(293,74)"/>
<path d="M0 0 C0.66 0.66 1.32 1.32 2 2 C0.35830472 4.02054804 -1.30911778 6.02043058 -3 8 C-3.33 8 -3.66 8 -4 8 C-4 6.35 -4 4.7 -4 3 C-2.68 2.67 -1.36 2.34 0 2 C0 1.34 0 0.68 0 0 Z " fill="#14415D" transform="translate(99,72)"/>
<path d="M0 0 C1.32 0.99 2.64 1.98 4 3 C3.67 4.98 3.34 6.96 3 9 C2.67 8.34 2.34 7.68 2 7 C1.34 6.67 0.68 6.34 0 6 C0 4.02 0 2.04 0 0 Z " fill="#1F4460" transform="translate(262,42)"/>
<path d="M0 0 C0.66 0 1.32 0 2 0 C1.34 3.96 0.68 7.92 0 12 C-0.33 12 -0.66 12 -1 12 C-1.02698189 10.37509046 -1.04638757 8.75005367 -1.0625 7.125 C-1.07410156 6.22007813 -1.08570313 5.31515625 -1.09765625 4.3828125 C-1 2 -1 2 0 0 Z " fill="#E7F4F8" transform="translate(163,28)"/>
<path d="M0 0 C-0.33 0.99 -0.66 1.98 -1 3 C-3.31 3 -5.62 3 -8 3 C-4.93882432 0.37613513 -4.26826873 0 0 0 Z " fill="#D3DFE7" transform="translate(314,361)"/>
<path d="M0 0 C2.39456443 2.39456443 2.75546876 3.65807308 3 7 C2.01 7.99 1.02 8.98 0 10 C0 6.7 0 3.4 0 0 Z " fill="#EAF0F7" transform="translate(273,273)"/>
<path d="M0 0 C0.66 0.99 1.32 1.98 2 3 C0.02 4.32 -1.96 5.64 -4 7 C-3.6875 4.625 -3.6875 4.625 -3 2 C-2.01 1.34 -1.02 0.68 0 0 Z " fill="#CCDCE0" transform="translate(152,193)"/>
<path d="M0 0 C0.33 0 0.66 0 1 0 C1.33 3.63 1.66 7.26 2 11 C0.02 11.99 0.02 11.99 -2 13 C-1.34 8.71 -0.68 4.42 0 0 Z " fill="#B6CAD7" transform="translate(264,228)"/>
<path d="M0 0 C0 0.99 0 1.98 0 3 C-4.455 2.01 -4.455 2.01 -9 1 C-4.82091936 -1.08954032 -4.19589427 -1.16552619 0 0 Z " fill="#C5D6DF" transform="translate(236,188)"/>
<path d="M0 0 C0.66 0 1.32 0 2 0 C2.33 0.99 2.66 1.98 3 3 C1.68 4.32 0.36 5.64 -1 7 C-1.33 6.01 -1.66 5.02 -2 4 C-1.34 4 -0.68 4 0 4 C0 2.68 0 1.36 0 0 Z " fill="#19415E" transform="translate(227,161)"/>
<path d="M0 0 C0.66 0.33 1.32 0.66 2 1 C1.67 2.98 1.34 4.96 1 7 C0.01 6.67 -0.98 6.34 -2 6 C-1.34 4.02 -0.68 2.04 0 0 Z " fill="#0C3E5E" transform="translate(229,128)"/>
</svg>
